<svg width="137" height="47" viewBox="0 0 137 47" fill="none" xmlns="http://www.w3.org/2000/svg">
<path d="M64.1279 32.1059V16.8419H58.2239V15.3059H71.8079V16.8419H65.9039V32.1059H64.1279ZM75.1091 21.9539C75.9011 20.2739 77.5091 19.3859 79.8371 19.3859V21.0419C79.6931 21.0419 79.5491 21.0179 79.4291 21.0179C76.7891 21.0179 75.1811 22.6979 75.1811 25.6739V32.1059H73.4771V19.4819H75.1091V21.9539ZM86.8349 19.3859C90.0989 19.3859 91.9469 21.0179 91.9469 24.2819V32.1059H90.3149V30.1379C89.5469 31.4339 88.0589 32.2259 85.9709 32.2259C83.1149 32.2259 81.3629 30.7379 81.3629 28.5539C81.3629 26.6099 82.6109 24.9779 86.2349 24.9779H90.2429V24.2099C90.2429 22.0499 89.0189 20.8739 86.6669 20.8739C85.0349 20.8739 83.4989 21.4499 82.4669 22.3619L81.6989 21.0899C82.9709 20.0099 84.8429 19.3859 86.8349 19.3859ZM86.2349 30.8819C88.1549 30.8819 89.5709 29.9699 90.2429 28.3139V26.2499H86.2829C83.8349 26.2499 83.0429 27.2099 83.0429 28.5059C83.0429 29.9699 84.2189 30.8819 86.2349 30.8819ZM101.374 32.2259C97.6061 32.2259 94.8701 29.5619 94.8701 25.7939C94.8701 22.0259 97.6061 19.3859 101.374 19.3859C103.51 19.3859 105.31 20.2259 106.318 21.8819L105.046 22.7459C104.182 21.4739 102.838 20.8739 101.374 20.8739C98.6141 20.8739 96.5981 22.8419 96.5981 25.7939C96.5981 28.7699 98.6141 30.7139 101.374 30.7139C102.838 30.7139 104.182 30.1379 105.046 28.8659L106.318 29.7299C105.31 31.3619 103.51 32.2259 101.374 32.2259ZM118.766 32.1059L113.678 25.7699L110.702 28.5059V32.1059H108.998V14.2979H110.702V26.3699L118.238 19.4819H120.35L114.95 24.6419L120.854 32.1059H118.766ZM123.609 16.7219C122.913 16.7219 122.361 16.1699 122.361 15.4979C122.361 14.8499 122.913 14.2979 123.609 14.2979C124.305 14.2979 124.857 14.8259 124.857 15.4739C124.857 16.1699 124.329 16.7219 123.609 16.7219ZM122.745 32.1059V19.4819H124.449V32.1059H122.745ZM134.758 30.1139L135.358 31.3379C134.686 31.9379 133.678 32.2259 132.694 32.2259C130.318 32.2259 128.998 30.8819 128.998 28.5539V20.9219H126.742V19.4819H128.998V16.7219H130.702V19.4819H134.542V20.9219H130.702V28.4579C130.702 29.9459 131.47 30.7619 132.886 30.7619C133.582 30.7619 134.278 30.5459 134.758 30.1139Z" fill="#551FFF"/>
<ellipse cx="23.0529" cy="23.0529" rx="7.67401" ry="24.9277" transform="rotate(-45 23.0529 23.0529)" stroke="#551FFF" stroke-width="3"/>
<ellipse cx="23.053" cy="23.0529" rx="7.67401" ry="24.9277" transform="rotate(45 23.053 23.0529)" stroke="#551FFF" stroke-width="3"/>
<circle cx="23.053" cy="23.0529" r="3.56111" stroke="#551FFF" stroke-width="3"/>
</svg>
