<svg xmlns="http://www.w3.org/2000/svg" width="26.75" height="28" viewBox="0 0 26.75 28">
  <defs>
    <style>
      .cls-1 {
        fill-rule: evenodd;
      }
    </style>
  </defs>
  <path class="cls-1" d="M176.926,609.988H159.074a4.45,4.45,0,0,1-4.444-4.444V587.909a4.449,4.449,0,0,1,4.444-4.443h17.852a4.449,4.449,0,0,1,4.444,4.443v17.635A4.45,4.45,0,0,1,176.926,609.988Zm-17.852-25.522a3.447,3.447,0,0,0-3.444,3.443v17.635a3.448,3.448,0,0,0,3.444,3.444h17.852a3.448,3.448,0,0,0,3.444-3.444V587.909a3.447,3.447,0,0,0-3.444-3.443H159.074Zm21.709,7.3H155.13v-1h25.653v1Zm-18.472-4.388h-1v-5.371h1v5.371Zm13.545,0h-1v-5.371h1v5.371Zm1.477,18.289H158.667V594.005h18.666v11.667Zm-17.666-1h16.666v-9.667H159.667v9.667Zm16.666-4.333H159.667v-1h16.666v1Zm-7.833,4.666h-1V594.672h1v10.333Z" transform="translate(-154.625 -582)"/>
</svg>
