<?xml version="1.0" encoding="utf-8"?>
<!-- Generator: Adobe Illustrator 15.0.0, SVG Export Plug-In . SVG Version: 6.00 Build 0)  -->
<!DOCTYPE svg PUBLIC "-//W3C//DTD SVG 1.1//EN" "http://www.w3.org/Graphics/SVG/1.1/DTD/svg11.dtd">
<svg version="1.1" id="Layer_1" xmlns="http://www.w3.org/2000/svg" xmlns:xlink="http://www.w3.org/1999/xlink" x="0px" y="0px"
	 width="26.36px" height="28.35px" viewBox="0 0 26.36 28.35" enable-background="new 0 0 26.36 28.35" xml:space="preserve">
<path fill="#1A1A18" d="M17.03,0.153H9.163c-2.924,0-5.302,2.379-5.302,5.303v5.569h1V5.456c0-2.372,1.93-4.303,4.302-4.303h7.138
	v3.828c0,2.924,2.379,5.303,5.302,5.303h3.758v12.764c0,2.372-1.93,4.302-4.302,4.302H9.163c-2.372,0-4.302-1.93-4.302-4.302h-1
	c0,2.924,2.378,5.302,5.302,5.302h11.896c2.924,0,5.302-2.378,5.302-5.302V9.566L17.03,0.153z M17.301,4.981V1.847l7.371,7.438
	h-3.069C19.23,9.284,17.301,7.354,17.301,4.981z"/>
<path fill="#1667B0" d="M23.158,21.843c0,0.468-0.382,0.851-0.85,0.851H1.343c-0.468,0-0.851-0.383-0.851-0.851v-9.675
	c0-0.468,0.383-0.851,0.851-0.851h20.966c0.468,0,0.85,0.383,0.85,0.851V21.843z"/>
<g>
	<path fill="#FFFFFF" d="M7.379,16.061c-0.143-0.166-0.303-0.309-0.489-0.414c-0.332-0.186-0.709-0.279-1.129-0.279
		c-0.483,0-0.917,0.107-1.303,0.322c-0.387,0.215-0.689,0.516-0.908,0.902c-0.22,0.387-0.33,0.842-0.33,1.369
		c0,0.525,0.11,0.98,0.33,1.367c0.219,0.387,0.521,0.689,0.908,0.906c0.386,0.219,0.819,0.328,1.303,0.328
		c0.433,0,0.815-0.094,1.148-0.285c0.202-0.115,0.368-0.279,0.518-0.465v0.684h1.119v-7.048H7.379V16.061z M7.195,18.805
		c-0.135,0.242-0.313,0.426-0.536,0.553c-0.223,0.125-0.475,0.189-0.757,0.189s-0.535-0.064-0.758-0.189
		c-0.223-0.127-0.401-0.311-0.536-0.553c-0.136-0.24-0.202-0.521-0.202-0.844c0-0.33,0.066-0.613,0.202-0.852
		c0.135-0.236,0.313-0.42,0.536-0.545c0.223-0.127,0.476-0.191,0.758-0.191s0.534,0.064,0.757,0.191
		c0.223,0.125,0.401,0.309,0.536,0.545c0.136,0.238,0.203,0.521,0.203,0.852C7.398,18.283,7.331,18.564,7.195,18.805z"/>
	<path fill="#FFFFFF" d="M13.651,15.699c-0.405-0.223-0.867-0.332-1.389-0.332c-0.514,0-0.972,0.109-1.373,0.332
		c-0.402,0.221-0.719,0.527-0.951,0.916c-0.231,0.391-0.348,0.838-0.348,1.346c0,0.5,0.116,0.945,0.348,1.338
		c0.232,0.393,0.549,0.703,0.951,0.928c0.401,0.225,0.859,0.336,1.373,0.336c0.521,0,0.983-0.111,1.389-0.336
		c0.404-0.225,0.721-0.535,0.95-0.928s0.344-0.838,0.344-1.338c0-0.514-0.114-0.963-0.344-1.35S14.056,15.92,13.651,15.699z
		 M13.566,18.805c-0.129,0.242-0.306,0.426-0.531,0.553c-0.227,0.125-0.483,0.189-0.772,0.189c-0.282,0-0.534-0.064-0.757-0.189
		c-0.223-0.127-0.4-0.311-0.532-0.553c-0.132-0.24-0.197-0.521-0.197-0.844c0-0.33,0.065-0.613,0.197-0.852
		c0.132-0.236,0.31-0.42,0.532-0.545c0.223-0.127,0.479-0.191,0.767-0.191c0.282,0,0.536,0.064,0.763,0.191
		c0.226,0.125,0.402,0.309,0.531,0.545c0.129,0.238,0.193,0.521,0.193,0.852C13.76,18.283,13.695,18.564,13.566,18.805z"/>
	<path fill="#FFFFFF" d="M18.978,19.375c-0.217,0.115-0.451,0.172-0.701,0.172c-0.289,0-0.549-0.064-0.781-0.189
		c-0.232-0.127-0.414-0.311-0.546-0.547c-0.132-0.238-0.197-0.521-0.197-0.85c0-0.33,0.065-0.613,0.197-0.852
		c0.132-0.236,0.313-0.42,0.546-0.545c0.232-0.127,0.492-0.191,0.781-0.191c0.25,0,0.484,0.057,0.701,0.172
		c0.216,0.113,0.399,0.291,0.551,0.531l0.902-0.531c-0.194-0.387-0.479-0.68-0.852-0.879s-0.805-0.299-1.293-0.299
		c-0.527,0-0.996,0.109-1.407,0.332c-0.411,0.221-0.732,0.527-0.965,0.916c-0.231,0.391-0.349,0.838-0.349,1.346
		c0,0.5,0.117,0.945,0.349,1.338c0.232,0.393,0.554,0.703,0.965,0.928s0.88,0.336,1.407,0.336c0.488,0,0.92-0.102,1.293-0.309
		c0.373-0.205,0.657-0.498,0.852-0.879l-0.902-0.531C19.377,19.084,19.193,19.262,18.978,19.375z"/>
</g>
</svg>
