<?xml version="1.0" encoding="utf-8"?>
<!-- Generator: Adobe Illustrator 15.0.0, SVG Export Plug-In . SVG Version: 6.00 Build 0)  -->
<!DOCTYPE svg PUBLIC "-//W3C//DTD SVG 1.1//EN" "http://www.w3.org/Graphics/SVG/1.1/DTD/svg11.dtd">
<svg version="1.1" id="Layer_1" xmlns="http://www.w3.org/2000/svg" xmlns:xlink="http://www.w3.org/1999/xlink" x="0px" y="0px"
	 width="26.36px" height="28.35px" viewBox="0 0 26.36 28.35" enable-background="new 0 0 26.36 28.35" xml:space="preserve">
<path fill="#1A1A18" d="M17.03,0.153H9.163c-2.924,0-5.302,2.379-5.302,5.303v5.569h1V5.456c0-2.372,1.93-4.303,4.302-4.303h7.138
	v3.828c0,2.924,2.379,5.303,5.302,5.303h3.758v12.764c0,2.372-1.93,4.302-4.302,4.302H9.163c-2.372,0-4.302-1.93-4.302-4.302h-1
	c0,2.924,2.378,5.302,5.302,5.302h11.896c2.924,0,5.302-2.378,5.302-5.302V9.566L17.03,0.153z M17.301,4.981V1.847l7.371,7.438
	h-3.069C19.23,9.284,17.301,7.354,17.301,4.981z"/>
<path fill="#1667B0" d="M23.158,21.843c0,0.468-0.382,0.851-0.85,0.851H1.343c-0.468,0-0.851-0.383-0.851-0.851v-9.675
	c0-0.468,0.383-0.851,0.851-0.851h20.966c0.468,0,0.85,0.383,0.85,0.851V21.843z"/>
<g>
	<path fill="#FFFFFF" d="M5.442,15.923c-0.129-0.157-0.271-0.293-0.439-0.393c-0.3-0.177-0.638-0.266-1.016-0.266
		c-0.435,0-0.825,0.103-1.172,0.307s-0.619,0.489-0.816,0.854c-0.197,0.366-0.296,0.798-0.296,1.296s0.099,0.931,0.296,1.296
		c0.197,0.366,0.47,0.653,0.816,0.86s0.737,0.311,1.172,0.311c0.389,0,0.733-0.091,1.032-0.271c0.182-0.109,0.331-0.265,0.465-0.441
		v0.648h1.007v-6.678H5.442V15.923z M5.277,18.523c-0.121,0.228-0.282,0.401-0.482,0.521s-0.427,0.18-0.681,0.18
		s-0.481-0.06-0.681-0.18c-0.201-0.12-0.361-0.294-0.482-0.521c-0.122-0.229-0.183-0.495-0.183-0.802
		c0-0.312,0.061-0.58,0.183-0.806c0.121-0.225,0.281-0.396,0.482-0.517c0.199-0.12,0.427-0.181,0.681-0.181s0.48,0.061,0.681,0.181
		s0.361,0.292,0.482,0.517c0.121,0.226,0.182,0.494,0.182,0.806C5.459,18.028,5.398,18.295,5.277,18.523z"/>
	<path fill="#FFFFFF" d="M11.081,15.58c-0.363-0.21-0.779-0.315-1.248-0.315c-0.462,0-0.874,0.105-1.235,0.315
		c-0.36,0.21-0.646,0.499-0.854,0.868c-0.208,0.369-0.312,0.794-0.312,1.273c0,0.475,0.104,0.897,0.312,1.27
		c0.209,0.372,0.494,0.664,0.854,0.877c0.361,0.214,0.773,0.32,1.235,0.32c0.469,0,0.885-0.106,1.248-0.32
		c0.364-0.213,0.648-0.505,0.854-0.877s0.309-0.795,0.309-1.27c0-0.485-0.103-0.912-0.309-1.277
		C11.729,16.078,11.445,15.79,11.081,15.58z M11.005,18.523c-0.115,0.228-0.274,0.401-0.478,0.521s-0.435,0.18-0.694,0.18
		c-0.254,0-0.48-0.06-0.681-0.18s-0.359-0.294-0.479-0.521c-0.118-0.229-0.178-0.495-0.178-0.802c0-0.312,0.06-0.58,0.178-0.806
		c0.119-0.225,0.278-0.396,0.479-0.517s0.43-0.181,0.689-0.181c0.254,0,0.482,0.061,0.686,0.181s0.362,0.292,0.478,0.517
		c0.115,0.226,0.174,0.494,0.174,0.806C11.179,18.028,11.12,18.295,11.005,18.523z"/>
	<path fill="#FFFFFF" d="M14.537,16.399c0.208-0.12,0.442-0.181,0.701-0.181c0.227,0,0.436,0.055,0.631,0.162
		c0.195,0.108,0.359,0.276,0.494,0.504l0.812-0.504c-0.174-0.366-0.43-0.644-0.766-0.832c-0.336-0.189-0.723-0.284-1.162-0.284
		c-0.475,0-0.896,0.105-1.266,0.315s-0.658,0.499-0.867,0.868c-0.208,0.369-0.312,0.794-0.312,1.273c0,0.475,0.104,0.897,0.312,1.27
		c0.209,0.372,0.498,0.664,0.867,0.877c0.369,0.214,0.791,0.32,1.266,0.32c0.439,0,0.826-0.098,1.162-0.293s0.592-0.473,0.766-0.832
		l-0.812-0.505c-0.135,0.229-0.299,0.396-0.494,0.505c-0.195,0.107-0.404,0.161-0.631,0.161c-0.259,0-0.493-0.06-0.701-0.18
		c-0.209-0.12-0.373-0.292-0.491-0.518c-0.118-0.225-0.178-0.493-0.178-0.806c0-0.312,0.06-0.58,0.178-0.806
		C14.164,16.691,14.328,16.52,14.537,16.399z"/>
	<polygon fill="#FFFFFF" points="21.947,20.125 20.18,17.667 21.871,15.319 20.729,15.319 19.617,16.892 18.512,15.319 
		17.336,15.319 19.023,17.683 17.26,20.125 18.428,20.125 19.6,18.464 20.754,20.125 	"/>
</g>
</svg>
