<svg xmlns="http://www.w3.org/2000/svg" width="26.5" height="26.5" viewBox="0 0 26.5 26.5">
  <defs>
    <style>
      .cls-1 {
        fill: #898989;
        fill-rule: evenodd;
      }
    </style>
  </defs>
  <path id="Shape_53_copy_4" data-name="Shape 53 copy 4" class="cls-1" d="M1218.5,1086.26a13.26,13.26,0,1,1,13.26-13.26A13.277,13.277,0,0,1,1218.5,1086.26Zm0-25.52a12.26,12.26,0,1,0,12.26,12.26A12.274,12.274,0,0,0,1218.5,1060.74Zm-5.65,17.82,0.95-3.93,8.11-8.11,2.98,2.98-8.11,8.11Zm1.86-3.42-0.5,2.07,2.06-.5,7.21-7.21-1.57-1.56Zm2.77,1.26-2.44-2.43,0.71-.71,2.43,2.44Z" transform="translate(-1205.25 -1059.75)"/>
</svg>
