<svg xmlns="http://www.w3.org/2000/svg" width="22.5" height="28.24" viewBox="0 0 22.5 28.24">
  <defs>
    <style>
      .cls-1 {
        fill-rule: evenodd;
      }
    </style>
  </defs>
  <path class="cls-1" d="M391.032,1124.7v-7h3.05a2.8,2.8,0,0,1,1.955.68,2.255,2.255,0,0,1,0,3.35,2.8,2.8,0,0,1-1.955.67h-1.9v2.3h-1.15Zm1.15-3.4h1.9a1.669,1.669,0,0,0,1.115-.33,1.28,1.28,0,0,0,0-1.83,1.671,1.671,0,0,0-1.115-.34h-1.9v2.5Zm5.6,3.4v-7h2.35a3.757,3.757,0,0,1,2.69,1.01,3.455,3.455,0,0,1,0,4.98,3.715,3.715,0,0,1-2.69,1.01h-2.35Zm1.15-1.1h1.2a2.55,2.55,0,0,0,1.85-.67,2.272,2.272,0,0,0,.7-1.73,2.3,2.3,0,0,0-.7-1.73,2.592,2.592,0,0,0-1.85-.67h-1.2v4.8Zm6.05,1.1v-7h4.9v1.1h-3.75v2h2.95v1.1h-2.95v2.8h-1.15Zm2.966,7.42h-11.9a5.3,5.3,0,0,1-5.3-5.3h1a4.307,4.307,0,0,0,4.3,4.3h11.9a4.307,4.307,0,0,0,4.3-4.3v-13.07l-8.747-8.82h-7.451a4.307,4.307,0,0,0-4.3,4.3v6.66h-1v-6.66a5.309,5.309,0,0,1,5.3-5.3h7.868l9.33,9.41v13.48A5.3,5.3,0,0,1,407.948,1132.12Zm4.8-18.12h-4.237a5.311,5.311,0,0,1-5.3-5.31v-4.31a0.5,0.5,0,0,1,1,0v4.31a4.314,4.314,0,0,0,4.3,4.31h4.237a0.5,0.5,0,0,1,.5.5A0.5,0.5,0,0,1,412.75,1114Z" transform="translate(-390.75 -1103.88)"/>
</svg>
