<svg xmlns="http://www.w3.org/2000/svg" width="26.62" height="26.624" viewBox="0 0 26.62 26.624">
  <defs>
    <style>
      .cls-1 {
        fill: #898989;
        fill-rule: evenodd;
      }
    </style>
  </defs>
  <path class="cls-1" d="M1218.5,984.806a13.306,13.306,0,1,1,13.31-13.306A13.323,13.323,0,0,1,1218.5,984.806Zm0-25.512a12.206,12.206,0,1,0,12.21,12.206A12.223,12.223,0,0,0,1218.5,959.294Zm2.76,18.2-0.78-.777,4.92-4.916,0.78,0.777Zm-2.01,1.232,0.48-4.03,3.55,3.551Zm-7.65-7.524-0.78-.777,4.92-4.916,0.78,0.777Zm6.15-6.925-0.48,4.03-3.55-3.551Zm8.24,6.344h-6.48v-6.488h6.48v6.488Zm-5.25-1.238h4.02V965.37h-4.02v4.012Zm-3.25,9.487h-6.48v-6.488h6.48v6.488Zm-5.25-1.238h4.02v-4.012h-4.02v4.012Z" transform="translate(-1205.19 -958.188)"/>
</svg>
