<svg xmlns="http://www.w3.org/2000/svg" width="29.562" height="29.562" viewBox="0 0 29.562 29.562">
  <defs>
    <style>
      .cls-1 {
        fill-rule: evenodd;
      }
    </style>
  </defs>
  <path class="cls-1" d="M967.1,610.773H949.9a6.175,6.175,0,0,1-6.169-6.169V587.4a6.175,6.175,0,0,1,6.169-6.168H967.1a6.175,6.175,0,0,1,6.169,6.168V604.6A6.175,6.175,0,0,1,967.1,610.773ZM949.9,582.227a5.174,5.174,0,0,0-5.169,5.168V604.6a5.175,5.175,0,0,0,5.169,5.17H967.1a5.175,5.175,0,0,0,5.169-5.17V587.4a5.174,5.174,0,0,0-5.169-5.168H949.9Zm12.225,17.1a3.363,3.363,0,1,1,3.363-3.363A3.367,3.367,0,0,1,962.121,599.325Zm0-5.726a2.363,2.363,0,1,0,2.363,2.363A2.366,2.366,0,0,0,962.121,593.6Zm-2.779,2.948H948.521v-1h10.821v1Zm9.137,0h-3.368v-1h3.368v1Zm-13.6-4.927a3.364,3.364,0,1,1,3.363-3.363A3.367,3.367,0,0,1,954.879,591.62Zm0-5.727a2.364,2.364,0,1,0,2.363,2.364A2.366,2.366,0,0,0,954.879,585.893Zm13.6,2.948H957.658v-1h10.821v1Zm-16.59,0h-3.368v-1h3.368v1Zm2.99,18.147a3.363,3.363,0,1,1,3.363-3.363A3.367,3.367,0,0,1,954.879,606.988Zm0-5.726a2.363,2.363,0,1,0,2.363,2.363A2.366,2.366,0,0,0,954.879,601.262Zm13.6,2.948H957.658v-1h10.821v1Zm-16.59,0h-3.368v-1h3.368v1Z" transform="translate(-943.719 -581.219)"/>
</svg>
