<?xml version="1.0" encoding="utf-8"?>
<!-- Generator: Adobe Illustrator 15.0.0, SVG Export Plug-In . SVG Version: 6.00 Build 0)  -->
<!DOCTYPE svg PUBLIC "-//W3C//DTD SVG 1.1//EN" "http://www.w3.org/Graphics/SVG/1.1/DTD/svg11.dtd">
<svg version="1.1" id="Layer_1" xmlns="http://www.w3.org/2000/svg" xmlns:xlink="http://www.w3.org/1999/xlink" x="0px" y="0px"
	 width="26.36px" height="28.35px" viewBox="0 0 26.36 28.35" enable-background="new 0 0 26.36 28.35" xml:space="preserve">
<path fill="#1A1A18" d="M17.03,0.153H9.163c-2.924,0-5.302,2.379-5.302,5.303v5.569h1V5.456c0-2.372,1.93-4.303,4.302-4.303h7.138
	v3.828c0,2.924,2.379,5.303,5.302,5.303h3.758v12.764c0,2.372-1.93,4.302-4.302,4.302H9.163c-2.372,0-4.302-1.93-4.302-4.302h-1
	c0,2.924,2.378,5.302,5.302,5.302h11.896c2.924,0,5.302-2.378,5.302-5.302V9.566L17.03,0.153z M17.301,4.981V1.847l7.371,7.438
	h-3.069C19.23,9.284,17.301,7.354,17.301,4.981z"/>
<path fill="#427E85" d="M23.158,21.843c0,0.468-0.382,0.851-0.85,0.851H1.343c-0.468,0-0.851-0.383-0.851-0.851v-9.675
	c0-0.468,0.383-0.851,0.851-0.851h20.966c0.468,0,0.85,0.383,0.85,0.851V21.843z"/>
<g>
	<path fill="#FFFFFF" d="M6.223,11.928c-0.22,0-0.4,0.068-0.541,0.204c-0.141,0.137-0.212,0.306-0.212,0.509
		c0,0.196,0.071,0.364,0.212,0.503c0.141,0.14,0.321,0.209,0.541,0.209c0.226,0,0.408-0.071,0.545-0.214
		c0.138-0.143,0.207-0.318,0.207-0.527c0-0.196-0.07-0.359-0.211-0.489C6.623,11.993,6.442,11.928,6.223,11.928z"/>
	<path fill="#FFFFFF" d="M5.64,19.385c0,0.267-0.06,0.468-0.179,0.604c-0.119,0.137-0.286,0.204-0.499,0.204
		c-0.276,0-0.505-0.066-0.687-0.199l-0.339,0.884c0.138,0.101,0.306,0.176,0.503,0.223c0.197,0.048,0.406,0.071,0.625,0.071
		c0.559,0,0.99-0.163,1.294-0.489s0.457-0.768,0.457-1.325v-5.168H5.64V19.385z"/>
	<path fill="#FFFFFF" d="M12.363,14.455c-0.38-0.216-0.817-0.323-1.312-0.323c-0.427,0-0.806,0.094-1.139,0.28
		c-0.206,0.115-0.375,0.281-0.527,0.471v-0.695h-1.12v6.916h1.176v-2.479c0.145,0.167,0.306,0.312,0.494,0.418
		c0.335,0.19,0.707,0.285,1.115,0.285c0.495,0,0.933-0.107,1.312-0.323c0.379-0.215,0.681-0.518,0.903-0.907
		s0.334-0.847,0.334-1.372c0-0.526-0.111-0.982-0.334-1.368C13.043,14.971,12.742,14.67,12.363,14.455z M12.208,17.57
		c-0.132,0.241-0.309,0.425-0.532,0.552c-0.223,0.126-0.475,0.189-0.757,0.189s-0.537-0.063-0.762-0.189
		C9.93,17.995,9.751,17.812,9.62,17.57c-0.131-0.24-0.197-0.522-0.197-0.845c0-0.33,0.066-0.613,0.197-0.851
		c0.132-0.237,0.311-0.42,0.537-0.546c0.226-0.127,0.48-0.19,0.762-0.19s0.535,0.063,0.757,0.19c0.223,0.126,0.4,0.309,0.532,0.546
		s0.198,0.521,0.198,0.851C12.405,17.048,12.339,17.33,12.208,17.57z"/>
	<path fill="#FFFFFF" d="M18.494,14.188v0.707c-0.17-0.208-0.359-0.389-0.594-0.507c-0.338-0.172-0.721-0.257-1.147-0.257
		c-0.478,0-0.908,0.102-1.294,0.304c-0.386,0.203-0.69,0.488-0.913,0.855s-0.334,0.795-0.334,1.282c0,0.494,0.111,0.925,0.334,1.292
		s0.527,0.654,0.913,0.859c0.386,0.206,0.816,0.31,1.294,0.31c0.427,0,0.81-0.088,1.147-0.262c0.207-0.106,0.381-0.261,0.537-0.438
		v0.291c0,0.514-0.129,0.898-0.387,1.154c-0.257,0.257-0.662,0.385-1.213,0.385c-0.346,0-0.686-0.056-1.021-0.166
		c-0.336-0.111-0.613-0.258-0.832-0.441l-0.527,0.893c0.282,0.234,0.645,0.413,1.086,0.537c0.443,0.123,0.896,0.185,1.36,0.185
		c0.878,0,1.55-0.217,2.014-0.65s0.696-1.11,0.696-2.028v-4.304H18.494z M18.264,17.328c-0.129,0.219-0.31,0.39-0.541,0.514
		c-0.232,0.123-0.496,0.185-0.791,0.185s-0.561-0.062-0.795-0.185c-0.235-0.124-0.418-0.295-0.546-0.514
		c-0.129-0.218-0.192-0.47-0.192-0.755s0.063-0.537,0.192-0.755c0.128-0.219,0.311-0.387,0.546-0.504
		c0.234-0.117,0.5-0.176,0.795-0.176s0.559,0.059,0.791,0.176c0.231,0.117,0.412,0.285,0.541,0.504
		c0.128,0.218,0.192,0.47,0.192,0.755S18.392,17.11,18.264,17.328z"/>
</g>
</svg>
