<svg xmlns="http://www.w3.org/2000/svg" width="21.812" height="13.53" viewBox="0 0 21.812 13.53">
  <defs>
    <style>
      .cls-1 {
        fill-rule: evenodd;
      }
    </style>
  </defs>
  <path class="cls-1" d="M224.348,2823.91h20.3m0,0.74h-20.3a0.74,0.74,0,0,1-.743-0.74,0.749,0.749,0,0,1,.743-0.75h20.3a0.749,0.749,0,0,1,.743.75A0.74,0.74,0,0,1,244.652,2824.65Zm-6.035-6.69,6.035,6.04m0,0.74a0.722,0.722,0,0,1-.525-0.22l-6.035-6.03a0.743,0.743,0,0,1,1.051-1.05l6.035,6.03a0.742,0.742,0,0,1,0,1.05A0.725,0.725,0,0,1,244.652,2824.74Zm-6.035,5.3,6.035-6.04m-6.035,6.78a0.722,0.722,0,0,1-.525-0.22,0.742,0.742,0,0,1,0-1.05l6.035-6.04a0.743,0.743,0,0,1,1.051,1.05l-6.035,6.04A0.726,0.726,0,0,1,238.617,2830.78Z" transform="translate(-223.594 -2817.25)"/>
</svg>
