<svg xmlns="http://www.w3.org/2000/svg" width="129.25" height="49.312" viewBox="0 0 129.25 49.312">
  <defs>
    <style>
      .cls-1 {
        font-size: 22.651px;
        font-family: "Cygre Medium";
        font-weight: 500;
      }

      .cls-1, .cls-2 {
        fill: #fff;
      }

      .cls-2 {
        fill-rule: evenodd;
      }
    </style>
  </defs>
  <text id="СПбГУ" class="cls-1" x="52.75" y="35.156">СПбГУ</text>
  <path class="cls-2" d="M115.488,31.126c0.014,0.036.029,0.071,0.044,0.1a5.535,5.535,0,0,0,.757,1.114l0.009-.007h0a2.065,2.065,0,0,1,.213-0.134c0.049-.027.105-0.057,0.17-0.09a5.555,5.555,0,0,1,.605-0.253,6.569,6.569,0,0,1,1.375-.272,5.478,5.478,0,0,1-.869-2.475,6.776,6.776,0,0,1-.037-1.288c-0.049,0-.1-0.007-0.149-0.007a2.333,2.333,0,0,0-1.465.514l-0.03.024a2.306,2.306,0,0,0-.768,2.37c0.038,0.119.09,0.27,0.144,0.4m4.094,0.2a0.615,0.615,0,0,0,.434.231h0.034a0.613,0.613,0,0,0,.434-0.231,4.059,4.059,0,0,0,.908-1.5,2.024,2.024,0,0,0-.155-2.1,1.332,1.332,0,0,0-.7-0.33c-0.087-.009-0.174-0.015-0.261-0.017a1.046,1.046,0,1,0-.51,0c-0.088,0-.18.008-0.241,0.017a1.324,1.324,0,0,0-.7.33,2.018,2.018,0,0,0-.155,2.1,4.045,4.045,0,0,0,.906,1.5m9.983,6.891a1.709,1.709,0,0,1,.228.851,1.606,1.606,0,0,1,.721.319s0.037-.037.042-0.043a4.339,4.339,0,0,0,1.094-1.992,4.9,4.9,0,0,0-.114-2.192c-0.006-.013-0.011-0.031-0.017-0.042a1.3,1.3,0,0,1,1.119-.594,1.591,1.591,0,0,1,.679.16,1.914,1.914,0,0,1,.5.345s-0.61,1.083-.93,1.6a9.074,9.074,0,0,0-.611,1.19,2.569,2.569,0,0,0-.3,1.43c0.04,0.362.232,1.054,0.315,1.748a4.364,4.364,0,0,1-.1,1.982l0.017-.011-0.007.016a8,8,0,0,0,2.589-3.371l-0.011,0v0a1.73,1.73,0,0,1-.466-0.151,2.428,2.428,0,0,1-.374-0.242,1.145,1.145,0,0,1-.4-1.732c0.083-.1.168-0.19,0.256-0.283,0.223-.237.464-0.476,0.717-0.77a1.952,1.952,0,0,0,.478-1.071,2.782,2.782,0,0,0,.029-0.343,2.16,2.16,0,0,0-1.085-1.98,2.024,2.024,0,0,0-.637-0.225,3.118,3.118,0,0,0-2.12.551,2.291,2.291,0,0,0-.721.768,2.468,2.468,0,0,0,.266,1.51c0,0.013.012,0.024,0.017,0.038,0.417,1.519.2,2.252-1.173,2.541m-6.807-1.355a3.727,3.727,0,0,0,.506.745l0,0,0.048,0.049a2.387,2.387,0,0,1,.651-0.339,4.159,4.159,0,0,1,.888-0.2,3.678,3.678,0,0,1-.582-1.656,4.531,4.531,0,0,1-.023-0.865h-0.011v0a1.251,1.251,0,0,0-.742.118,2.4,2.4,0,0,0-.43.3,1.233,1.233,0,0,0-.407.621,1.458,1.458,0,0,0-.066.776,3.639,3.639,0,0,0,.164.464m2.171-1a2.123,2.123,0,0,0,.833,1.183,0.324,0.324,0,0,0,.118.027,1.755,1.755,0,0,0,.83-1.281,1.387,1.387,0,0,0-.23-1.409,1.176,1.176,0,0,0-.449-0.2,0.253,0.253,0,0,1-.038-0.013,0.709,0.709,0,0,0-.05-1.276,0.611,0.611,0,0,0-.263-0.047,0.671,0.671,0,0,0-.616.72,0.694,0.694,0,0,0,.435.622,1.119,1.119,0,0,0-.466.253,1.38,1.38,0,0,0-.1,1.424m1.91,1.2a5.282,5.282,0,0,1,1.667.331c0.015,0.006.025,0.014,0.039,0.02a3.307,3.307,0,0,0,.382-0.594,3.754,3.754,0,0,0,.164-0.463,1.46,1.46,0,0,0-.066-0.777,1.247,1.247,0,0,0-.407-0.621,2.423,2.423,0,0,0-.429-0.3l-0.006,0,0,0a1.261,1.261,0,0,0-.743-0.118,4.491,4.491,0,0,1-.024.865,3.67,3.67,0,0,1-.581,1.656h0.012l0,0m-5.433-5.471a6.58,6.58,0,0,1,1.375.272,5.3,5.3,0,0,1,.6.254c0.065,0.032.121,0.062,0.17,0.089a2.223,2.223,0,0,1,.213.134l0,0,0.008,0.007a5.466,5.466,0,0,0,.757-1.113c0.014-.031.03-0.066,0.045-0.1,0.052-.131.1-0.265,0.143-0.4a2.358,2.358,0,0,0,.076-0.579,2.319,2.319,0,0,0-.844-1.791l-0.03-.024a2.336,2.336,0,0,0-1.466-.514c-0.049,0-.1,0-0.147.007a6.841,6.841,0,0,1-.038,1.288,5.484,5.484,0,0,1-.868,2.475m0.518,2.248s0.091,0.457.146,0.66a0.306,0.306,0,0,1,.057,0,1.884,1.884,0,0,0,1.034-.571V33.2a0.508,0.508,0,0,0-.371-0.364,6.766,6.766,0,0,0-2.415-.4l-0.6,0a6.943,6.943,0,0,0-2.51.4,0.515,0.515,0,0,0-.375.364V33.93a1.905,1.905,0,0,0,1.04.571,0.412,0.412,0,0,1,.059,0c0.056-.2.149-0.66,0.149-0.66a0.214,0.214,0,0,1-.088-0.06c-0.044-.091.034-0.144,0.163-0.217a1.3,1.3,0,0,1,.522-0.117,5.784,5.784,0,0,1,.1,1.565,6.66,6.66,0,0,1-.895,3.356,6.455,6.455,0,0,1,.79.935,9.347,9.347,0,0,0,.827-4.1c0.024-.631,0-1.37,0-1.875,0.062,0,.269-0.025.475-0.025s0.408,0.025.469,0.025c0,0.505-.024,1.244,0,1.876a9.214,9.214,0,0,0,.861,4.166,6.715,6.715,0,0,1,.732-0.9l0.048-.068a6.571,6.571,0,0,1-.918-3.393,5.74,5.74,0,0,1,.1-1.565,1.275,1.275,0,0,1,.521.118c0.128,0.072.206,0.125,0.163,0.216a0.224,0.224,0,0,1-.09.06m8.983,10.19a0.091,0.091,0,0,0-.01,0,0.128,0.128,0,0,0-.03,0H130.85l-0.11.011a2.546,2.546,0,0,1-1.058-.124,1.811,1.811,0,0,1-.468-0.257c-0.165-.143-0.328-0.288-0.491-0.433a2.58,2.58,0,0,0-1.36-.7,2.808,2.808,0,0,0-1.456.338,0.119,0.119,0,0,0-.077.1,0.136,0.136,0,0,0,.124.132,5.926,5.926,0,0,1,1.253.222,2.847,2.847,0,0,1,.818.347c0.3,0.215.564,0.488,0.739,0.6a1.594,1.594,0,0,0,1.511.292l0.035-.011a1.846,1.846,0,0,0,.207-0.069,2.1,2.1,0,0,0,.266-0.127l0.009-.007a1.567,1.567,0,0,0,.163-0.1l0,0a0.118,0.118,0,0,0,.024-0.165,0.119,0.119,0,0,0-.076-0.046m-1.7-4.066a0.509,0.509,0,0,0,.226.24c0.331,0.191.448,0.471-.047,0.53a4.461,4.461,0,0,0-4.09,1.527,4.076,4.076,0,0,0-.3.38,1.235,1.235,0,0,0,.028,1.467,2.319,2.319,0,0,0,.486.462,2.083,2.083,0,0,0,2.387.017c0.1-.1.1-0.133,0.083-0.158a0.046,0.046,0,0,0-.007-0.005h0a2.14,2.14,0,0,1-.89.2,2.117,2.117,0,0,1-.845-0.163,2.026,2.026,0,0,1-.856-0.706,0.7,0.7,0,0,1,.068-0.824,3.883,3.883,0,0,1,.657-0.62,2.969,2.969,0,0,1,1.747-.6l0.048,0a3.122,3.122,0,0,1,2.488,1.257l0,0,0.008,0.009a3.438,3.438,0,0,0,.337-0.852c0.018-.067.037-0.138,0.053-0.213,0.149-.653.106-2.168-1.341-2.168a0.345,0.345,0,0,0-.08.019c-0.154.041-.191,0.123-0.163,0.21M105.429,36.43c0.254,0.294.494,0.533,0.718,0.77,0.088,0.093.173,0.188,0.255,0.283a1.144,1.144,0,0,1-.4,1.732,2.426,2.426,0,0,1-.374.241,1.72,1.72,0,0,1-.467.151v0l-0.011,0a8.012,8.012,0,0,0,2.588,3.371l-0.006-.016,0.016,0.011a4.383,4.383,0,0,1-.1-1.982c0.083-.694.276-1.386,0.316-1.747a2.568,2.568,0,0,0-.3-1.431,8.93,8.93,0,0,0-.611-1.191c-0.32-.514-0.93-1.6-0.93-1.6a1.942,1.942,0,0,1,.5-0.345,1.6,1.6,0,0,1,.679-0.16,1.292,1.292,0,0,1,1.118.594c-0.006.01-.01,0.029-0.016,0.041a4.9,4.9,0,0,0-.114,2.193,4.337,4.337,0,0,0,1.094,1.993l0.042,0.043a1.6,1.6,0,0,1,.72-0.32,1.709,1.709,0,0,1,.228-0.851c-1.375-.288-1.589-1.022-1.171-2.54,0-.014.012-0.026,0.015-0.039a2.467,2.467,0,0,0,.267-1.51,2.3,2.3,0,0,0-.721-0.768,3.118,3.118,0,0,0-2.12-.551,2.03,2.03,0,0,0-.638.225,2.16,2.16,0,0,0-1.085,1.98,2.592,2.592,0,0,0,.031.343,1.947,1.947,0,0,0,.476,1.071m9.656,0.681a4.175,4.175,0,0,1,.889.2,2.389,2.389,0,0,1,.65.339l0.049-.049,0,0a3.727,3.727,0,0,0,.506-0.745,3.58,3.58,0,0,0,.164-0.464,1.467,1.467,0,0,0-.066-0.776A1.25,1.25,0,0,0,116.874,35a2.4,2.4,0,0,0-.429-0.3,1.259,1.259,0,0,0-.743-0.118v0H115.69a4.294,4.294,0,0,1-.024.865,3.66,3.66,0,0,1-.581,1.656m-1.025-.041h0a0.323,0.323,0,0,0,.118-0.027,2.127,2.127,0,0,0,.833-1.183,1.382,1.382,0,0,0-.1-1.424,1.113,1.113,0,0,0-.466-0.253,0.692,0.692,0,0,0,.434-0.622,0.67,0.67,0,0,0-.615-0.72,0.609,0.609,0,0,0-.263.047,0.7,0.7,0,0,0-.425.619,0.689,0.689,0,0,0,.375.657,0.324,0.324,0,0,1-.038.012,1.2,1.2,0,0,0-.45.2,1.387,1.387,0,0,0-.229,1.409,1.755,1.755,0,0,0,.83,1.281m-3.047-.255a3.321,3.321,0,0,0,.381.594c0.015-.007.025-0.015,0.039-0.021a5.3,5.3,0,0,1,1.667-.331l0,0h0.012a3.67,3.67,0,0,1-.581-1.656,4.561,4.561,0,0,1-.025-0.865,1.26,1.26,0,0,0-.743.118l0,0-0.007,0a2.465,2.465,0,0,0-.428.3,1.245,1.245,0,0,0-.407.622,1.46,1.46,0,0,0-.066.777,3.435,3.435,0,0,0,.164.463m2.974,6.275a0.125,0.125,0,0,0,.051-0.016,0.122,0.122,0,0,0,.072-0.117,0.12,0.12,0,0,0-.077-0.1,2.816,2.816,0,0,0-1.456-.338,2.584,2.584,0,0,0-1.361.7q-0.243.219-.49,0.433a1.807,1.807,0,0,1-.469.256,2.544,2.544,0,0,1-1.058.124l-0.109-.011h-0.017a0.143,0.143,0,0,0-.031,0,0.083,0.083,0,0,0-.009,0h0a0.118,0.118,0,0,0-.054.21l0,0a1.808,1.808,0,0,0,.163.1l0.011,0.007a1.959,1.959,0,0,0,.266.127,1.765,1.765,0,0,0,.206.069l0.035,0.011a2.014,2.014,0,0,0,.824.042,2.038,2.038,0,0,0,.687-0.334c0.174-.109.436-0.383,0.74-0.6a2.805,2.805,0,0,1,.817-0.347,6.027,6.027,0,0,1,1.254-.222m-4.84-1.193c0.017,0.075.035,0.144,0.055,0.213a3.4,3.4,0,0,0,.336.852l0.007-.009,0,0a3.125,3.125,0,0,1,2.488-1.257l0.047,0a2.969,2.969,0,0,1,1.747.6,3.886,3.886,0,0,1,.658.62,0.7,0.7,0,0,1,.068.823,2.023,2.023,0,0,1-.856.706,2.108,2.108,0,0,1-.846.163,2.157,2.157,0,0,1-.89-0.2h0a0.015,0.015,0,0,0-.007.005c-0.019.025-.013,0.062,0.083,0.158a2.083,2.083,0,0,0,2.387-.017,2.336,2.336,0,0,0,.486-0.462,1.234,1.234,0,0,0,.027-1.467,4.118,4.118,0,0,0-.295-0.38,4.462,4.462,0,0,0-4.091-1.527c-0.495-.059-0.377-0.338-0.046-0.53a0.5,0.5,0,0,0,.225-0.24c0.028-.087-0.008-0.17-0.162-0.21a0.353,0.353,0,0,0-.081-0.019c-1.446,0-1.489,1.514-1.341,2.168m17.6,22.216,0,0.016h0.009a0.14,0.14,0,0,0-.011-0.016m-5.959-14.683a1.215,1.215,0,0,1,.28.54c0,0.031.73-.766,0.73-0.766V48.439l-0.775.325-0.235.666m-4.725,20.1a9.729,9.729,0,0,0,1.009-.33,5.3,5.3,0,0,0,.5-0.223,4,4,0,0,0,.5-0.294,2.1,2.1,0,0,0,.434-0.411,1.328,1.328,0,0,0,.162-0.258c0.021-.05.046-0.1,0.061-0.145l0.032-.126,0,0a0.168,0.168,0,0,0-.132-0.308,0.169,0.169,0,0,0-.095.11,0.173,0.173,0,0,0-.08.051,1.162,1.162,0,0,1-.341.276,2.228,2.228,0,0,1-.389.153,6,6,0,0,1-.911.165c-0.314.04-.655,0.075-0.966,0.106s-0.633.043-.955,0.056l-1,.032a6.256,6.256,0,0,0-1.126.132,2.548,2.548,0,0,0-.5.167c-0.059.028-.118,0.058-0.178,0.094a1.46,1.46,0,0,0-.565.637,1.248,1.248,0,0,0-.085.755,1.214,1.214,0,0,0,.307.59,0.22,0.22,0,0,0,.244.049,0.6,0.6,0,0,0,.1-0.072,2.045,2.045,0,0,1,1.026-.74c0.5-.116,1.211-0.147,1.9-0.247a9.6,9.6,0,0,0,1.053-.209m-3.14-1.918a0.168,0.168,0,0,0,.156.178,0.171,0.171,0,0,0,.105-0.029l0,0h0l0.054-.036a1.684,1.684,0,0,1,.241-0.134,1.827,1.827,0,0,1,.738-0.157,5.12,5.12,0,0,1,1.072.1,5.406,5.406,0,0,0,1.366.073,3.692,3.692,0,0,0,.715-0.128,2.349,2.349,0,0,0,.367-0.145h0l0.008,0A0.756,0.756,0,0,0,118.117,67a0.136,0.136,0,0,0-.068-0.181l-0.032-.011s-0.472-.087-0.663-0.141l-0.6-.154q-0.615-.153-1.241-0.261a2.938,2.938,0,0,0-1.539.124,2.029,2.029,0,0,0-.193.088,1.462,1.462,0,0,0-.855,1.147m0.676-1.648c0.021-.006.3-0.1,0.426-0.147h0c0.005,0-1.618-.586-0.7-1.627l0-.04a0.032,0.032,0,0,0-.007,0,0.894,0.894,0,0,0-.832.334,0.883,0.883,0,0,0,.179,1.147c-0.09-.007-0.307-0.039-0.4-0.048-0.392-.268-1.042-0.926-0.109-2.318a0.858,0.858,0,0,0-.462.068,1.591,1.591,0,0,0-.209.086,1.3,1.3,0,0,0-.773,1.156,1.188,1.188,0,0,0,.15.569,1.285,1.285,0,0,0,.262.337c-0.069-.007-0.366-0.025-0.437-0.045a1.746,1.746,0,0,1,.011-2.477,0.862,0.862,0,0,0-.462.069,1.44,1.44,0,0,0-.231.108,1.52,1.52,0,0,0-.75,1.289,2.317,2.317,0,0,0,.149.719c0.6,1.457,3.425,1.016,4.19.825m14.377,2.805a1.818,1.818,0,0,0-.177-0.093,2.544,2.544,0,0,0-.5-0.167,6.236,6.236,0,0,0-1.126-.132l-1-.032q-0.477-.016-0.954-0.056t-0.967-.106a5.942,5.942,0,0,1-.911-0.165,2.238,2.238,0,0,1-.39-0.153,1.162,1.162,0,0,1-.341-0.276,0.168,0.168,0,0,0-.08-0.051,0.167,0.167,0,0,0-.226.2h0l0,0.005,0.03,0.126c0.017,0.045.041,0.1,0.062,0.145a1.388,1.388,0,0,0,.163.258,2.1,2.1,0,0,0,.433.411,4.333,4.333,0,0,0,.5.3c0.167,0.084.335,0.156,0.5,0.222a9.664,9.664,0,0,0,1.009.33,9.522,9.522,0,0,0,1.051.209c0.687,0.1,1.4.132,1.9,0.247a2.042,2.042,0,0,1,1.026.74,0.647,0.647,0,0,0,.1.072,0.22,0.22,0,0,0,.245-0.049,1.214,1.214,0,0,0,.307-0.59,1.256,1.256,0,0,0-.085-0.755,1.462,1.462,0,0,0-.566-0.637m-5.669-1.445,0.006,0,0,0a2.44,2.44,0,0,0,.368.145,3.842,3.842,0,0,0,.716.128,5.436,5.436,0,0,0,1.366-.073,5.117,5.117,0,0,1,1.071-.1,1.836,1.836,0,0,1,.74.157,1.671,1.671,0,0,1,.24.134l0.053,0.036h0l0.007,0.005a0.179,0.179,0,0,0,.105.028,0.168,0.168,0,0,0,.155-0.178,1.458,1.458,0,0,0-.853-1.147,1.949,1.949,0,0,0-.194-0.088,2.923,2.923,0,0,0-1.538-.123c-0.44.074-.831,0.161-1.243,0.259l-0.6.154c-0.192.055-.662,0.142-0.662,0.142a0.137,0.137,0,0,0-.11.159,0.205,0.205,0,0,0,.01.032,0.746,0.746,0,0,0,.355.323m7.746-4.193a1.468,1.468,0,0,0-.23-0.108,0.864,0.864,0,0,0-.462-0.068,1.746,1.746,0,0,1,.011,2.477c-0.071.02-.368,0.038-0.437,0.045a1.355,1.355,0,0,0,.263-0.337,1.2,1.2,0,0,0,.148-0.569,1.3,1.3,0,0,0-.772-1.156,1.6,1.6,0,0,0-.208-0.086,0.871,0.871,0,0,0-.462-0.068c0.932,1.394.281,2.05-.11,2.318-0.091.01-.308,0.042-0.4,0.048a0.883,0.883,0,0,0,.181-1.146,0.893,0.893,0,0,0-.833-0.334,0.076,0.076,0,0,0-.008,0l0,0.04c0.922,1.041-.7,1.625-0.7,1.627h0c0.13,0.043.406,0.141,0.428,0.147,0.763,0.192,3.591.633,4.189-.825a2.346,2.346,0,0,0,.149-0.719,1.521,1.521,0,0,0-.751-1.289m-7.386-4.275a0.142,0.142,0,0,0-.065-0.033,0.1,0.1,0,0,0-.067.01,1.121,1.121,0,0,0-.462.547,0.534,0.534,0,0,0-.044.3,0.58,0.58,0,0,0,.218.33,0.328,0.328,0,0,0,.245.043,0.579,0.579,0,0,0,.326-0.225,0.527,0.527,0,0,0,.072-0.29,1.122,1.122,0,0,0-.224-0.679m0.237-5.741a0.055,0.055,0,0,1-.007-0.008l-0.046.029a2.486,2.486,0,0,0-.594.377A6.06,6.06,0,0,0,120.5,56.9a5.913,5.913,0,0,0,.282,3.622,1.758,1.758,0,0,0,1.227,1.065,1.87,1.87,0,0,0,1.533-.572,6.168,6.168,0,0,0,1.684-3.318,5.81,5.81,0,0,0-.324-3.709,1.707,1.707,0,0,0-1.186-.977,1.486,1.486,0,0,0-.808.1h0Zm-1.675,3.857c0.018-.1.083-0.392,0.1-0.489a0.7,0.7,0,0,0,.218.259,0.722,0.722,0,0,0,.378.138,1.054,1.054,0,0,1-.161-0.421,0.937,0.937,0,0,1,.1-0.542c0.074,0.121.439,1,.58,1.291a1.969,1.969,0,0,0-.065.248c-0.011.046-.016,0.094-0.023,0.141,0,0.027-.009.052-0.011,0.078-0.023.02-1.015,1.222-1.251,1.459A6.141,6.141,0,0,1,121.232,56.972Zm0.966,3.866a0.966,0.966,0,0,1-.633-0.365,1.414,1.414,0,0,1-.345-0.7l1.2-1.451a0.369,0.369,0,0,0,.232.247l0.006,0a0.376,0.376,0,0,0,.335-0.164c0.031,0.074.725,1.349,0.753,1.37a1.905,1.905,0,0,1-1.544,1.062h0Zm2.34-3.108a5.372,5.372,0,0,1-.182.743,6.13,6.13,0,0,1-.259.662,13.991,13.991,0,0,1-.8-1.336c0.015-.052.028-0.1,0.039-0.157a2.35,2.35,0,0,0,.037-0.312c0.336-.328.654-0.713,0.991-1.091a0.468,0.468,0,0,1,.1.421,0.743,0.743,0,0,1-.283.409,0.949,0.949,0,0,0,.5-0.067c-0.024.2-.1,0.526-0.136,0.729h0Zm-0.446-3.657a1.137,1.137,0,0,1,.165.184l0.05,0.08,0.059,0.117a2.863,2.863,0,0,1,.23.734,0.426,0.426,0,0,0-.147-0.023,1.044,1.044,0,0,0-1.133.939,1.35,1.35,0,0,1,.388-0.2,1.248,1.248,0,0,1,.378-0.01c-0.249.3-.514,0.59-0.789,0.872a0.352,0.352,0,0,0-.233-0.235,0.373,0.373,0,0,0-.326.155c-0.11-.248-0.364-0.868-0.415-1.013a0.785,0.785,0,0,1,.349.055,1.21,1.21,0,0,1,.352.306,1.464,1.464,0,0,0-.051-0.575,0.8,0.8,0,0,0-.725-0.566,0.871,0.871,0,0,0-.226.006A2.607,2.607,0,0,1,123,53.935a0.552,0.552,0,1,0,1.1.137h0ZM141.24,49.9A0.483,0.483,0,0,0,141,49.6a0.489,0.489,0,0,0-.374-0.039l-0.021.005c-0.56.167-1.147,0.341-1.724,0.474-0.288.071-.576,0.139-0.862,0.2s-0.569.109-.88,0.15c-0.6.08-1.209,0.147-1.814,0.2-0.388.032-.786,0.059-1.173,0.076,0.224-.059.445-0.122,0.666-0.189q0.486-.152.965-0.328,0.945-.345,1.867-0.751a12.253,12.253,0,0,0,1.829-.926,10.633,10.633,0,0,0,1.617-1.26,0.482,0.482,0,0,0,.01-0.682,0.468,0.468,0,0,0-.141-0.1,0.489,0.489,0,0,0-.462.013l-0.019.012c-0.532.306-1.095,0.619-1.656,0.888a14.485,14.485,0,0,1-1.712.747c-0.6.209-1.215,0.4-1.824,0.574-0.306.085-.611,0.165-0.915,0.233l-0.2.042q0.228-.1.45-0.2c0.331-.161.649-0.332,0.96-0.509q0.919-.531,1.8-1.133a12.576,12.576,0,0,0,1.7-1.33,10.809,10.809,0,0,0,1.407-1.635,0.483,0.483,0,0,0-.13-0.67,0.505,0.505,0,0,0-.074-0.041,0.486,0.486,0,0,0-.536.078l-0.018.015q-0.726.669-1.511,1.271a14.207,14.207,0,0,1-1.61,1.12c-0.107.062-.216,0.12-0.324,0.181q-0.71.405-1.446,0.762c-0.093.045-.187,0.087-0.281,0.13-0.178.081-.355,0.157-0.532,0.229l0.1-.065c0.208-.147.4-0.3,0.6-0.454,0.106-.085.213-0.17,0.316-0.257,0.57-.483,1.1-0.992,1.609-1.51l0.021-.019a12.973,12.973,0,0,0,1.474-1.733,11.024,11.024,0,0,0,1.1-1.982,0.482,0.482,0,0,0-.169-0.578l-0.009,0h0a0.487,0.487,0,0,0-.677.117l-0.014.02c-0.39.551-.821,1.121-1.272,1.64-0.134.157-.269,0.313-0.407,0.469a11.235,11.235,0,0,1-1,1.027c-0.179.159-.359,0.309-0.54,0.461-0.328.274-.658,0.542-1,0.793,0.052-.067.1-0.135,0.156-0.2,0.277-.381.535-0.768,0.781-1.159,0.17-.271.336-0.544,0.5-0.818a14.037,14.037,0,0,0,.769-1.46c0.1-.225.2-0.45,0.28-0.68a11.443,11.443,0,0,0,.6-2.3,0.485,0.485,0,0,0-.319-0.523h0a0.031,0.031,0,0,0-.009,0,0.486,0.486,0,0,0-.619.294l-0.008.023c-0.2.575-.451,1.166-0.718,1.735-0.042.091-.08,0.185-0.124,0.274a17.185,17.185,0,0,1-.983,1.8c-0.022.034-.041,0.068-0.064,0.1-0.275.4-.563,0.794-0.856,1.175A12.511,12.511,0,0,1,130.27,45.8c-0.4.195-.813,0.462-1.226,0.663l-0.018.009a1.435,1.435,0,0,0-.658.623,1.384,1.384,0,0,0-.089.218,1.332,1.332,0,0,0-.071.421,1.433,1.433,0,0,0,.721,1.258,1.078,1.078,0,0,0,.476.127,0.43,0.43,0,0,0,.075-0.006,0.492,0.492,0,0,0,.23-0.079,0.437,0.437,0,0,1,.063-0.448,0.645,0.645,0,1,1,.436,1.177,2.035,2.035,0,0,1-.6.066,5.9,5.9,0,0,1-1.072-.1,5.814,5.814,0,0,1-1.359-.431,7.4,7.4,0,0,1-1.451-.969,5.035,5.035,0,0,1-1.647-3.514c0-.063-0.011-0.125-0.011-0.189a5.164,5.164,0,0,1,1.11-3.171c0.037-.044.2-0.227,0.42-0.441l0.038-.038,0.007-.007a5.543,5.543,0,0,1,.773-0.654h0l0,0a0.535,0.535,0,0,1-.071-0.061c-0.028-.026-0.056-0.054-0.081-0.083a0.724,0.724,0,0,1-.685-0.437l-0.007-.017-0.017-.041a1.071,1.071,0,0,1-.015-0.3,0.85,0.85,0,0,1,.22-0.409,0.832,0.832,0,0,1,.126-0.12,1.041,1.041,0,0,1,.452-0.191,0.963,0.963,0,0,1,.124-0.022l0.016,0a0.918,0.918,0,0,1,1,.562l0,0a2.42,2.42,0,0,1-.265.06h0a0.385,0.385,0,0,0-.395-0.247,0.623,0.623,0,0,0-.173.043,0.351,0.351,0,0,0-.1.059,0.538,0.538,0,0,0,.339.842,0.4,0.4,0,0,0,.183-0.024l0.007,0a16.276,16.276,0,0,1,1.822-.409c0.12-.019.225-0.033,0.3-0.038l0.008,0h0a1.488,1.488,0,0,0-.793-1.693,4.778,4.778,0,0,0-1.9-.344,6.589,6.589,0,0,0-1.449.156c-1.845.4-2.967,1.467-4,3.768a13.427,13.427,0,0,0-1.046,3.023h-0.1a13.272,13.272,0,0,0-1.039-3.023c-1.029-2.3-2.157-3.365-4-3.768a6.633,6.633,0,0,0-1.456-.155,4.748,4.748,0,0,0-1.9.343,1.488,1.488,0,0,0-.794,1.693l0.008,0c0.08,0,.185.018,0.305,0.038a16.33,16.33,0,0,1,1.822.409l0.006,0a0.4,0.4,0,0,0,.184.024c0.409-.045.653-0.736,0.241-0.9a0.611,0.611,0,0,0-.174-0.042,0.386,0.386,0,0,0-.4.247h0a2.168,2.168,0,0,1-.266-0.062l0,0a0.916,0.916,0,0,1,.994-0.562,0.1,0.1,0,0,1,.017,0c0.041,0,.082.012,0.124,0.02a0.994,0.994,0,0,1,.58.314,0.846,0.846,0,0,1,.218.409,0.986,0.986,0,0,1-.013.3c0,0.013-.012.028-0.017,0.042l-0.007.017a0.724,0.724,0,0,1-.685.436c-0.026.028-.053,0.057-0.082,0.083a0.528,0.528,0,0,1-.07.061,5.88,5.88,0,0,1,.82.7c0.216,0.213.383,0.4,0.419,0.442a5.14,5.14,0,0,1,1.111,3.173c0,0.064-.008.129-0.011,0.192,0,0.114-.013.227-0.025,0.341a7.75,7.75,0,0,1-.858,2.3c-0.024.037-.049,0.072-0.074,0.108h0.008a3.551,3.551,0,0,1-.641.76,7.381,7.381,0,0,1-1.45.969,5.822,5.822,0,0,1-1.36.431,5.886,5.886,0,0,1-1.072.1,2.039,2.039,0,0,1-.6-0.066,0.646,0.646,0,1,1,.437-1.177,0.436,0.436,0,0,1,.062.448,0.492,0.492,0,0,0,.23.079,0.442,0.442,0,0,0,.076.006,1.074,1.074,0,0,0,.475-0.127,1.433,1.433,0,0,0,.721-1.258,1.363,1.363,0,0,0-.07-0.421,1.567,1.567,0,0,0-.09-0.218,1.437,1.437,0,0,0-.657-0.623l-0.018-.009c-0.413-.2-0.825-0.468-1.227-0.663a12.508,12.508,0,0,1-3.263-2.413q-0.445-.575-0.857-1.175c-0.022-.034-0.042-0.068-0.064-0.1a17.57,17.57,0,0,1-.984-1.8c-0.042-.089-0.08-0.183-0.124-0.274-0.266-.57-0.513-1.16-0.717-1.735l-0.008-.023a0.486,0.486,0,0,0-.62-0.294l-0.007,0h0a0.483,0.483,0,0,0-.317.523,11.366,11.366,0,0,0,.6,2.3c0.084,0.23.179,0.456,0.28,0.68a14.476,14.476,0,0,0,.768,1.46c0.161,0.274.327,0.547,0.5,0.818,0.246,0.39.5,0.778,0.781,1.159,0.05,0.068.1,0.135,0.156,0.2q-0.51-.382-1-0.793c-0.181-.152-0.361-0.3-0.541-0.461a11.235,11.235,0,0,1-1-1.027c-0.137-.155-0.273-0.312-0.407-0.469q-0.675-.789-1.271-1.64l-0.014-.02a0.488,0.488,0,0,0-.677-0.117h0l-0.009,0a0.484,0.484,0,0,0-.17.578,11.116,11.116,0,0,0,1.1,1.983,13.106,13.106,0,0,0,1.473,1.732l0.02,0.019c0.509,0.517,1.041,1.027,1.61,1.51,0.1,0.087.21,0.173,0.317,0.257,0.191,0.155.388,0.307,0.595,0.454l0.1,0.065q-0.269-.109-0.531-0.229c-0.094-.043-0.189-0.085-0.283-0.13q-0.735-.356-1.445-0.761c-0.108-.062-0.216-0.12-0.324-0.182a14.388,14.388,0,0,1-1.61-1.12q-0.783-.6-1.511-1.27L100.25,43.5a0.492,0.492,0,0,0-.779.56,0.512,0.512,0,0,0,.041.074,10.793,10.793,0,0,0,1.408,1.635,12.523,12.523,0,0,0,1.7,1.329c0.581,0.4,1.175.778,1.8,1.133,0.31,0.178.628,0.349,0.959,0.51,0.146,0.07.3,0.138,0.45,0.2l-0.2-.044c-0.3-.068-0.609-0.148-0.914-0.232q-0.921-.258-1.824-0.574a14.5,14.5,0,0,1-1.713-.747c-0.561-.269-1.125-0.582-1.657-0.888L99.5,46.449a0.49,0.49,0,0,0-.461-0.013,0.483,0.483,0,0,0-.132.783,10.628,10.628,0,0,0,1.619,1.26,12.205,12.205,0,0,0,1.829.926c0.615,0.269,1.231.52,1.867,0.751,0.317,0.116.637,0.225,0.965,0.328,0.164,0.05.329,0.1,0.5,0.145l0.168,0.045q-0.588-.027-1.172-0.076-0.91-.079-1.815-0.2c-0.3-.039-0.588-0.089-0.88-0.15s-0.576-.131-0.862-0.2c-0.576-.132-1.163-0.307-1.724-0.474l-0.021-.005A0.487,0.487,0,0,0,99,49.6a0.482,0.482,0,0,0-.209.649,0.475,0.475,0,0,0,.179.193,10.472,10.472,0,0,0,1.754.839,12.484,12.484,0,0,0,1.879.5c0.619,0.134,1.238.255,1.864,0.359,0.564,0.093,1.111.174,1.7,0.234q-0.538.065-1.078,0.119-0.865.085-1.736,0.141c-0.143.011-.286,0.016-0.435,0.021l-0.415.007-0.84-.016c-0.563-.006-1.142-0.045-1.7-0.075H99.946a0.493,0.493,0,0,0-.462.725,0.478,0.478,0,0,0,.267.221,10.811,10.811,0,0,0,1.79.424q0.456,0.065.921,0.085c0.155,0.008.312,0.011,0.467,0.013l0.447,0.006q0.9,0.021,1.791.008c0.414-.005.5-0.005,0.918-0.019l0.055,0.179c-0.683.214-1.149,0.353-1.837,0.545-0.536.15-1.044,0.249-1.573,0.358s-1.067.21-1.593,0.318l-0.014,0a0.529,0.529,0,0,0-.1.033,0.484,0.484,0,0,0,.148.931,11.589,11.589,0,0,0,1.732,0,14.946,14.946,0,0,0,1.708-.27c0.554-.1,1.368-0.294,1.916-0.409l0.043,0.138c-0.227.13-.721,0.391-0.949,0.517s-0.456.24-.685,0.351-0.452.217-.68,0.331h0l-0.009,0c-0.456.235-.929,0.46-1.384,0.7l-0.009,0a0.484,0.484,0,0,0-.2.656,0.008,0.008,0,0,0,0,0,0.488,0.488,0,0,0,.521.246,13.276,13.276,0,0,0,1.566-.42c0.513-.17,1.012-0.408,1.5-0.62,0.13-.056.641-0.276,0.769-0.332l0.09,0.405-0.367.256-0.564.486a10.768,10.768,0,0,0-1.048,1.074,0.489,0.489,0,0,0,.052.688l0,0a0.491,0.491,0,0,0,.546.059l0.007,0h0a10.428,10.428,0,0,0,1.285-.784l0.429-.25c0,0.011.236,1.413,0.3,1.994a40.043,40.043,0,0,0,.335,4.144,1.018,1.018,0,0,0,.784.166c-0.02-.069-0.03-0.134-0.045-0.2a0.073,0.073,0,0,0,0-.021,2.748,2.748,0,0,1,.261-1.982s0-.01,0-0.015a0.3,0.3,0,0,0,.02-0.078,40.146,40.146,0,0,0-.48-4.458c-0.417-2.3-1.118-5.99-1.317-7.036a0.174,0.174,0,0,1,.05-0.157,0.184,0.184,0,0,1,.169-0.041,17.409,17.409,0,0,0,2.629.332,9.815,9.815,0,0,0,3.286-.39,11.838,11.838,0,0,0-.92,4.633,10.671,10.671,0,0,0,3.236,7.943,4.092,4.092,0,0,0-.451.085,6.065,6.065,0,0,0-1.118.557,0.1,0.1,0,0,0-.015.011c-0.015.006-.031,0.014-0.043,0.02a0.177,0.177,0,0,0-.063.213,2.1,2.1,0,0,0,.313.71,0.152,0.152,0,0,0,.106.078,8.631,8.631,0,0,1,4.246.909l0.015,0.009c0.029,0.018.057,0.041,0.086,0.06a1.371,1.371,0,0,1,.3,1.812c-0.142.146-.291,0.287-0.438,0.422a7.434,7.434,0,0,1-1.614,1.07,6.008,6.008,0,0,1-1.771.536c-0.609.11-1.217,0.191-2.011,0.378l0,0a0.224,0.224,0,0,0-.07.031,0.19,0.19,0,0,0-.058.262,0.1,0.1,0,0,0,.021.027,2.852,2.852,0,0,0,2.275.829,5.072,5.072,0,0,0,1.8-.493,5.807,5.807,0,0,0,2.277-1.925,0.417,0.417,0,0,0,.027-0.042,0.16,0.16,0,0,1-.006.022,5.9,5.9,0,0,1-.709,1.589,7.19,7.19,0,0,1-.814.849,3.694,3.694,0,0,1-.952.567,7.412,7.412,0,0,1-1.276.353l-0.005,0a0.188,0.188,0,0,0-.067.03,0.18,0.18,0,0,0-.06.247,0.2,0.2,0,0,0,.048.052,2.459,2.459,0,0,0,1.564.421,2.866,2.866,0,0,0,1.6-.644c0.074-.062.135-0.13,0.2-0.2,0.126,0.25.26,0.5,0.356,0.748a9.465,9.465,0,0,0,.393.893,0.188,0.188,0,0,0,.152.093,0.255,0.255,0,0,0,.165-0.093,9.481,9.481,0,0,0,.408-0.892c0.1-.25.231-0.5,0.357-0.75a2.444,2.444,0,0,0,.2.2,2.858,2.858,0,0,0,1.6.645,2.457,2.457,0,0,0,1.564-.421,0.181,0.181,0,0,0,.041-0.251,0.2,0.2,0,0,0-.12-0.078l0,0a7.362,7.362,0,0,1-1.276-.353,3.716,3.716,0,0,1-.953-0.567,7.023,7.023,0,0,1-.813-0.849,5.9,5.9,0,0,1-.71-1.589l-0.006-.022,0.027,0.042a5.758,5.758,0,0,0,2.277,1.925,5.077,5.077,0,0,0,1.8.493,2.85,2.85,0,0,0,2.274-.829,0.187,0.187,0,0,0-.009-0.267,0.156,0.156,0,0,0-.028-0.022,0.205,0.205,0,0,0-.07-0.031l0,0c-0.794-.187-1.4-0.268-2.01-0.378a6.014,6.014,0,0,1-1.772-.536,7.458,7.458,0,0,1-1.614-1.07q-0.225-.2-0.438-0.422a1.37,1.37,0,0,1,.3-1.812c0.029-.019.056-0.042,0.085-0.06l0.015-.009a8.619,8.619,0,0,1,4.246-.909,0.145,0.145,0,0,0,.105-0.078,2.119,2.119,0,0,0,.315-0.71,0.18,0.18,0,0,0-.064-0.213l-0.045-.02-0.015-.011a6.214,6.214,0,0,0-1.123-.557,4.173,4.173,0,0,0-.43-0.081,10.666,10.666,0,0,0,3.243-7.948,11.827,11.827,0,0,0-.923-4.629,9.838,9.838,0,0,0,3.269.385,17.409,17.409,0,0,0,2.629-.332,0.184,0.184,0,0,1,.169.041,0.171,0.171,0,0,1,.049.157c-0.2,1.045-.9,4.733-1.316,7.036a39.9,39.9,0,0,0-.481,4.458,0.5,0.5,0,0,0,.019.077s0,0.011,0,.015a2.75,2.75,0,0,1,.26,1.982,0.073,0.073,0,0,0,0,.021c-0.015.067-.025,0.132-0.045,0.2a1.021,1.021,0,0,0,.785-0.166,40.459,40.459,0,0,0,.334-4.144c0.062-.581.3-1.984,0.3-1.994l0.43,0.25a10.461,10.461,0,0,0,1.288.786l0.007,0a0.489,0.489,0,0,0,.6-0.747l0,0a10.94,10.94,0,0,0-1.045-1.074l-0.565-.486-0.367-.256,0.089-.405c0.128,0.057.639,0.276,0.769,0.332,0.489,0.213.987,0.45,1.5,0.62a13.173,13.173,0,0,0,1.566.42,0.489,0.489,0,0,0,.521-0.246,0.484,0.484,0,0,0-.194-0.657,0,0,0,0,1,0,0l-0.008,0c-0.455-.245-0.928-0.47-1.385-0.7l-0.008,0h0c-0.227-.114-0.454-0.221-0.68-0.331s-0.459-.228-0.684-0.351-0.722-.387-0.951-0.517l0.043-.138c0.549,0.115,1.363.307,1.918,0.409a14.894,14.894,0,0,0,1.707.27,11.6,11.6,0,0,0,1.733,0,0.484,0.484,0,0,0,.146-0.931,0.46,0.46,0,0,0-.1-0.033l-0.014,0c-0.527-.108-1.07-0.2-1.593-0.318s-1.037-.208-1.573-0.359q-0.923-.256-1.837-0.544l0.056-.179c0.414,0.014.5,0.014,0.917,0.019q0.9,0.011,1.791-.008l0.447-.007c0.156,0,.312-0.006.467-0.013,0.309-.013.617-0.042,0.921-0.085a10.79,10.79,0,0,0,1.789-.424,0.483,0.483,0,1,0,.084-0.879,0.492,0.492,0,0,0-.278-0.067h-0.018c-0.559.031-1.139,0.069-1.7,0.075l-0.84.016-0.415-.007c-0.149-.005-0.291-0.01-0.435-0.021q-0.87-.055-1.736-0.141-0.54-.054-1.077-0.119c0.589-.06,1.137-0.142,1.7-0.234q0.936-.157,1.865-0.359a12.5,12.5,0,0,0,1.878-.5,10.618,10.618,0,0,0,1.755-.839A0.486,0.486,0,0,0,141.24,49.9ZM120.011,64.724h-0.025a6.187,6.187,0,0,1-5.256-3.675c0.541-.909,1.661-2.892,1.661-2.892,0.1,0.406.729,3.1,0.729,3.1s-0.789.34-.391,0.582a2.241,2.241,0,0,0,1.247.064,5.691,5.691,0,0,0,.448.356,2.694,2.694,0,0,0,.927.45c0.127,0.049.215,0.081,0.215,0.081a0.968,0.968,0,0,0,.041.564,0.241,0.241,0,0,0,.243.141,0.348,0.348,0,0,0,.132-0.027,0.951,0.951,0,0,0,.33-0.225,4.067,4.067,0,0,0,.383-0.5,0.037,0.037,0,0,1,.014-0.034,1.694,1.694,0,0,0,.988-0.608,2.882,2.882,0,0,1-1.715-2.21,6.868,6.868,0,0,1-.151-1.4,8.45,8.45,0,0,1,.14-1.625l0.011-.057a6.028,6.028,0,0,1,1.934-3.551A1.478,1.478,0,0,0,121,52.017a1.209,1.209,0,0,1-.8-0.368,1.312,1.312,0,0,0,.521-0.93,1.163,1.163,0,0,0-.535-1.217,2.853,2.853,0,0,1,.306-0.479l-0.424-.452-0.086.045-0.462.247a2.527,2.527,0,0,1,.139.609,1.016,1.016,0,0,0-.7.916,1.246,1.246,0,0,0,.393.921c0.153,0.153.185,0.283,0.089,0.377a3.523,3.523,0,0,0-.864.48,4.062,4.062,0,0,0-.309.673c-0.1.211-.719,1.679-1.021,2.2-0.077.129-.382,0.611-0.382,0.611s-0.135.091-.284,0.211a2.221,2.221,0,0,0-.334.316,1.053,1.053,0,0,0,0,1.054l-1.79,3.255c-0.036-.076-0.071-0.153-0.1-0.23a10.846,10.846,0,0,1-.79-4.116c0-4.562,2.683-8.3,6.058-8.569h0.782a5.029,5.029,0,0,1,1.088.215,5.184,5.184,0,0,1,.544.206c2.563,1.135,4.417,4.357,4.417,8.149,0,4.735-2.891,8.587-6.445,8.587h0Zm-0.663-9.3s-1.255.472-1.852,0.713l1.222-2.11a0.81,0.81,0,0,0,.554.5c-0.015.075,0.076,0.891,0.076,0.891h0Zm-9.668,1.735h-0.416V56.826h0.814v1.6h-0.4V57.158m0.962,1.7,0.871-1.678h-0.957V56.826h1.355V57.1l-0.924,1.869-0.345-.115m17.374-.714a2.208,2.208,0,0,0,.815-0.739c0-.173-0.123-0.223-0.3-0.223a1.079,1.079,0,0,0-.381.085l-0.1-.274a1.1,1.1,0,0,1,.494-0.123,0.528,0.528,0,0,1,.653.523,1.18,1.18,0,0,1-.707.758h0.786v0.305h-1.267V58.143m2.321,0.311h-0.871V58.145l0.7-1.234h0.548v1.234h0.3v0.308h-0.3v0.541h-0.378V58.453Zm0-.308V57.308l-0.475.837h0.475Z" transform="translate(-98.75 -25.344)"/>
</svg>
