<svg xmlns="http://www.w3.org/2000/svg" width="22.25" height="29.188" viewBox="0 0 22.25 29.188">
  <defs>
    <style>
      .cls-1 {
        fill-rule: evenodd;
      }
    </style>
  </defs>
  <path class="cls-1" d="M611.661,595.519a3.22,3.22,0,1,1,3.219-3.221A3.224,3.224,0,0,1,611.661,595.519Zm0-5.44a2.22,2.22,0,1,0,2.219,2.219A2.223,2.223,0,0,0,611.661,590.079Zm4.562,8.871a3.222,3.222,0,0,0-2.914-1.862h-3.3a3.2,3.2,0,0,0-2.868,1.767l-0.894-.449a4.192,4.192,0,0,1,3.762-2.318h3.3a4.224,4.224,0,0,1,3.821,2.442Zm-1.1-12.161h-7.244v-1h7.244v1Zm-0.673-.638h-1v-4.743h-3.9v4.674h-1v-5.674h5.9v5.743Zm-2.949-2.328a0.811,0.811,0,1,1,.811-0.811A0.812,0.812,0,0,1,611.5,583.823Zm0-1a0.19,0.19,0,0,0-.19.189c0,0.209.379,0.209,0.379,0A0.189,0.189,0,0,0,611.5,582.823Zm7.65,19.8H603.766v-1H619.15v1Zm-3.07,2.345H603.766v-1H616.08v1Zm3.693,4.624H603.227a2.85,2.85,0,0,1-2.847-2.847V586.473a2.85,2.85,0,0,1,2.847-2.847h5.817v1h-5.817a1.849,1.849,0,0,0-1.847,1.847v20.272a1.848,1.848,0,0,0,1.847,1.847h16.546a1.849,1.849,0,0,0,1.847-1.847V586.473a1.85,1.85,0,0,0-1.847-1.847h-5.9v-1h5.9a2.85,2.85,0,0,1,2.847,2.847v20.272A2.85,2.85,0,0,1,619.773,609.592Z" transform="translate(-600.375 -580.406)"/>
</svg>
