<?xml version="1.0" encoding="utf-8"?>
<!-- Generator: Adobe Illustrator 15.0.0, SVG Export Plug-In . SVG Version: 6.00 Build 0)  -->
<!DOCTYPE svg PUBLIC "-//W3C//DTD SVG 1.1//EN" "http://www.w3.org/Graphics/SVG/1.1/DTD/svg11.dtd">
<svg version="1.1" id="Layer_1" xmlns="http://www.w3.org/2000/svg" xmlns:xlink="http://www.w3.org/1999/xlink" x="0px" y="0px"
	 width="26.36px" height="28.35px" viewBox="0 0 26.36 28.35" enable-background="new 0 0 26.36 28.35" xml:space="preserve">
<path fill="#1A1A18" d="M17.03,0.153H9.163c-2.924,0-5.302,2.379-5.302,5.303v5.569h1V5.456c0-2.372,1.93-4.303,4.302-4.303h7.138
	v3.828c0,2.924,2.379,5.303,5.302,5.303h3.758v12.764c0,2.372-1.93,4.302-4.302,4.302H9.163c-2.372,0-4.302-1.93-4.302-4.302h-1
	c0,2.924,2.378,5.302,5.302,5.302h11.896c2.924,0,5.302-2.378,5.302-5.302V9.566L17.03,0.153z M17.301,4.981V1.847l7.371,7.438
	h-3.069C19.23,9.284,17.301,7.354,17.301,4.981z"/>
<path fill="#D00E12" d="M23.158,21.843c0,0.468-0.382,0.851-0.85,0.851H1.343c-0.468,0-0.851-0.383-0.851-0.851v-9.675
	c0-0.468,0.383-0.851,0.851-0.851h20.966c0.468,0,0.85,0.383,0.85,0.851V21.843z"/>
<g>
	<path fill="#FFFFFF" d="M8.052,14.835c-0.38-0.216-0.817-0.323-1.312-0.323c-0.427,0-0.806,0.094-1.139,0.28
		c-0.206,0.115-0.375,0.281-0.527,0.471v-0.694h-1.12v6.916H5.13v-2.479c0.145,0.167,0.306,0.312,0.494,0.418
		c0.335,0.19,0.707,0.285,1.115,0.285c0.495,0,0.933-0.107,1.312-0.323c0.379-0.215,0.681-0.518,0.903-0.907
		s0.334-0.847,0.334-1.372c0-0.526-0.111-0.982-0.334-1.368C8.732,15.351,8.431,15.05,8.052,14.835z M7.896,17.95
		c-0.132,0.241-0.309,0.425-0.532,0.552c-0.223,0.126-0.475,0.189-0.757,0.189s-0.537-0.063-0.762-0.189
		c-0.226-0.127-0.405-0.311-0.537-0.552c-0.131-0.24-0.197-0.522-0.197-0.845c0-0.33,0.066-0.613,0.197-0.851
		c0.132-0.237,0.311-0.42,0.537-0.546c0.226-0.127,0.48-0.19,0.762-0.19s0.535,0.063,0.757,0.19c0.223,0.126,0.4,0.309,0.532,0.546
		s0.198,0.521,0.198,0.851C8.094,17.428,8.028,17.71,7.896,17.95z"/>
	<path fill="#FFFFFF" d="M14.06,15.205c-0.143-0.165-0.303-0.309-0.489-0.413c-0.333-0.187-0.709-0.28-1.129-0.28
		c-0.483,0-0.917,0.107-1.303,0.323c-0.386,0.215-0.689,0.516-0.908,0.902c-0.22,0.386-0.33,0.842-0.33,1.368
		c0,0.525,0.11,0.981,0.33,1.367c0.219,0.387,0.522,0.689,0.908,0.907c0.386,0.219,0.82,0.328,1.303,0.328
		c0.433,0,0.815-0.095,1.148-0.285c0.202-0.115,0.369-0.279,0.518-0.466v0.685h1.119v-7.049H14.06V15.205z M13.876,17.95
		c-0.135,0.241-0.313,0.425-0.536,0.552c-0.223,0.126-0.475,0.189-0.757,0.189s-0.535-0.063-0.758-0.189
		c-0.223-0.127-0.401-0.311-0.536-0.552c-0.135-0.24-0.202-0.522-0.202-0.845c0-0.33,0.067-0.613,0.202-0.851
		c0.135-0.237,0.313-0.42,0.536-0.546c0.223-0.127,0.476-0.19,0.758-0.19s0.535,0.063,0.757,0.19
		c0.223,0.126,0.401,0.309,0.536,0.546c0.136,0.237,0.202,0.521,0.202,0.851C14.078,17.428,14.012,17.71,13.876,17.95z"/>
	<path fill="#FFFFFF" d="M18.172,13.689c0.125-0.136,0.311-0.204,0.555-0.204c0.119,0,0.236,0.018,0.35,0.053
		c0.111,0.034,0.213,0.087,0.301,0.156l0.32-0.893c-0.127-0.095-0.281-0.165-0.467-0.209s-0.381-0.066-0.588-0.066
		c-0.576,0-1.021,0.16-1.332,0.479c-0.311,0.32-0.465,0.746-0.465,1.277v0.323h-0.828v0.95h0.828v4.085h1.176v-4.085h1.346v-0.95
		h-1.383v-0.304C17.984,14.03,18.047,13.826,18.172,13.689z"/>
</g>
</svg>
