<?xml version="1.0" encoding="utf-8"?>
<!-- Generator: Adobe Illustrator 15.0.0, SVG Export Plug-In . SVG Version: 6.00 Build 0)  -->
<!DOCTYPE svg PUBLIC "-//W3C//DTD SVG 1.1//EN" "http://www.w3.org/Graphics/SVG/1.1/DTD/svg11.dtd">
<svg version="1.1" id="Layer_1" xmlns="http://www.w3.org/2000/svg" xmlns:xlink="http://www.w3.org/1999/xlink" x="0px" y="0px"
	 width="26.36px" height="28.35px" viewBox="0 0 26.36 28.35" enable-background="new 0 0 26.36 28.35" xml:space="preserve">
<path fill="#1A1A18" d="M17.03,0.153H9.163c-2.924,0-5.302,2.379-5.302,5.303v5.569h1V5.456c0-2.372,1.93-4.303,4.302-4.303h7.138
	v3.828c0,2.924,2.379,5.303,5.302,5.303h3.758v12.764c0,2.372-1.93,4.302-4.302,4.302H9.163c-2.372,0-4.302-1.93-4.302-4.302h-1
	c0,2.924,2.378,5.302,5.302,5.302h11.896c2.924,0,5.302-2.378,5.302-5.302V9.566L17.03,0.153z M17.301,4.981V1.847l7.371,7.438
	h-3.069C19.23,9.284,17.301,7.354,17.301,4.981z"/>
<path fill="#009CE0" d="M23.158,21.843c0,0.468-0.382,0.851-0.85,0.851H1.343c-0.468,0-0.851-0.383-0.851-0.851v-9.675
	c0-0.468,0.383-0.851,0.851-0.851h20.966c0.468,0,0.85,0.383,0.85,0.851V21.843z"/>
<g>
	<path fill="#FFFFFF" d="M7.315,14.122c-0.369-0.216-0.794-0.323-1.275-0.323c-0.415,0-0.783,0.094-1.106,0.28
		c-0.2,0.115-0.365,0.281-0.512,0.471v-0.695H3.333v6.916h1.143v-2.479c0.141,0.167,0.297,0.312,0.48,0.418
		c0.326,0.19,0.688,0.285,1.084,0.285c0.481,0,0.906-0.107,1.275-0.323c0.369-0.215,0.662-0.518,0.878-0.907
		s0.324-0.847,0.324-1.372c0-0.526-0.108-0.982-0.324-1.368C7.977,14.638,7.684,14.337,7.315,14.122z M7.165,17.237
		c-0.128,0.241-0.3,0.425-0.517,0.552c-0.216,0.126-0.462,0.189-0.736,0.189c-0.274,0-0.521-0.063-0.741-0.189
		c-0.22-0.127-0.394-0.311-0.521-0.552c-0.128-0.24-0.192-0.522-0.192-0.845c0-0.33,0.064-0.613,0.192-0.851s0.302-0.42,0.521-0.546
		c0.219-0.127,0.466-0.19,0.741-0.19c0.274,0,0.52,0.063,0.736,0.19c0.216,0.126,0.389,0.309,0.517,0.546s0.192,0.521,0.192,0.851
		C7.357,16.715,7.292,16.997,7.165,17.237z"/>
	<path fill="#FFFFFF" d="M13.332,14.036c-0.308-0.158-0.657-0.237-1.047-0.237c-0.426,0-0.803,0.087-1.129,0.261
		c-0.227,0.121-0.402,0.291-0.553,0.484v-0.688H9.514v5.073h1.143v-2.565c0-0.342,0.057-0.625,0.169-0.85
		c0.112-0.225,0.273-0.395,0.48-0.509c0.207-0.113,0.445-0.171,0.713-0.171c0.365,0,0.65,0.111,0.854,0.333
		c0.205,0.222,0.307,0.557,0.307,1.007v2.755h1.143v-2.907c0-0.513-0.088-0.933-0.266-1.259
		C13.882,14.437,13.64,14.194,13.332,14.036z"/>
	<path fill="#FFFFFF" d="M19.453,13.855v0.706c-0.165-0.208-0.349-0.388-0.575-0.505c-0.33-0.172-0.702-0.257-1.115-0.257
		c-0.464,0-0.883,0.102-1.258,0.304c-0.375,0.203-0.671,0.488-0.887,0.855c-0.217,0.367-0.325,0.795-0.325,1.282
		c0,0.494,0.108,0.925,0.325,1.292c0.216,0.367,0.512,0.654,0.887,0.859c0.375,0.206,0.794,0.31,1.258,0.31
		c0.413,0,0.785-0.088,1.115-0.262c0.201-0.105,0.369-0.26,0.521-0.437v0.289c0,0.514-0.124,0.898-0.374,1.154
		c-0.25,0.257-0.644,0.385-1.181,0.385c-0.335,0-0.666-0.056-0.991-0.166c-0.326-0.111-0.596-0.258-0.81-0.441l-0.513,0.893
		c0.275,0.234,0.626,0.413,1.058,0.537c0.429,0.123,0.869,0.185,1.32,0.185c0.854,0,1.506-0.217,1.957-0.65
		c0.452-0.434,0.677-1.11,0.677-2.028v-4.304H19.453z M19.229,16.995c-0.125,0.219-0.3,0.39-0.525,0.514
		c-0.227,0.123-0.482,0.185-0.768,0.185c-0.287,0-0.544-0.062-0.773-0.185c-0.229-0.124-0.404-0.295-0.53-0.514
		c-0.125-0.218-0.188-0.47-0.188-0.755s0.062-0.537,0.188-0.755c0.126-0.219,0.302-0.387,0.53-0.504
		c0.229-0.117,0.486-0.176,0.773-0.176c0.285,0,0.541,0.059,0.768,0.176c0.226,0.117,0.4,0.285,0.525,0.504
		c0.125,0.218,0.188,0.47,0.188,0.755S19.354,16.777,19.229,16.995z"/>
</g>
</svg>
