<?xml version="1.0" encoding="utf-8"?>
<!-- Generator: Adobe Illustrator 15.0.0, SVG Export Plug-In . SVG Version: 6.00 Build 0)  -->
<!DOCTYPE svg PUBLIC "-//W3C//DTD SVG 1.1//EN" "http://www.w3.org/Graphics/SVG/1.1/DTD/svg11.dtd">
<svg version="1.1" id="Layer_1" xmlns="http://www.w3.org/2000/svg" xmlns:xlink="http://www.w3.org/1999/xlink" x="0px" y="0px"
	 width="26.36px" height="28.35px" viewBox="0 0 26.36 28.35" enable-background="new 0 0 26.36 28.35" xml:space="preserve">
<path fill="#1A1A18" d="M17.03,0.153H9.163c-2.924,0-5.302,2.379-5.302,5.303v5.569h1V5.456c0-2.372,1.93-4.303,4.302-4.303h7.138
	v3.828c0,2.924,2.379,5.303,5.302,5.303h3.758v12.764c0,2.372-1.93,4.302-4.302,4.302H9.163c-2.372,0-4.302-1.93-4.302-4.302h-1
	c0,2.924,2.378,5.302,5.302,5.302h11.896c2.924,0,5.302-2.378,5.302-5.302V9.566L17.03,0.153z M17.301,4.981V1.847l7.371,7.438
	h-3.069C19.23,9.284,17.301,7.354,17.301,4.981z"/>
<path fill="#EA5901" d="M23.158,21.843c0,0.468-0.382,0.851-0.85,0.851H1.343c-0.468,0-0.851-0.383-0.851-0.851v-9.675
	c0-0.468,0.383-0.851,0.851-0.851h20.966c0.468,0,0.85,0.383,0.85,0.851V21.843z"/>
<g>
	<path fill="#FFFFFF" d="M8.052,14.375c-0.38-0.216-0.817-0.323-1.312-0.323c-0.427,0-0.806,0.094-1.139,0.28
		c-0.206,0.115-0.375,0.281-0.527,0.472v-0.695h-1.12v6.916H5.13v-2.479c0.145,0.166,0.306,0.311,0.494,0.418
		c0.335,0.189,0.707,0.285,1.115,0.285c0.495,0,0.933-0.107,1.312-0.324c0.379-0.215,0.681-0.518,0.903-0.906
		c0.223-0.391,0.334-0.848,0.334-1.373s-0.111-0.982-0.334-1.367C8.732,14.89,8.431,14.589,8.052,14.375z M7.896,17.49
		c-0.132,0.24-0.309,0.424-0.532,0.551S6.89,18.23,6.607,18.23s-0.537-0.062-0.762-0.189C5.619,17.914,5.44,17.73,5.309,17.49
		c-0.131-0.24-0.197-0.523-0.197-0.846c0-0.33,0.066-0.613,0.197-0.85c0.132-0.238,0.311-0.42,0.537-0.547
		c0.226-0.127,0.48-0.189,0.762-0.189s0.535,0.062,0.757,0.189s0.4,0.309,0.532,0.547c0.132,0.236,0.198,0.52,0.198,0.85
		C8.094,16.967,8.028,17.25,7.896,17.49z"/>
	<path fill="#FFFFFF" d="M14.412,14.375c-0.379-0.216-0.817-0.323-1.312-0.323c-0.427,0-0.806,0.094-1.139,0.28
		c-0.206,0.115-0.375,0.281-0.527,0.472v-0.695h-1.12v6.916h1.176v-2.479c0.145,0.166,0.306,0.311,0.494,0.418
		c0.335,0.189,0.707,0.285,1.115,0.285c0.495,0,0.933-0.107,1.312-0.324c0.38-0.215,0.682-0.518,0.904-0.906
		c0.223-0.391,0.334-0.848,0.334-1.373s-0.111-0.982-0.334-1.367C15.094,14.89,14.792,14.589,14.412,14.375z M14.258,17.49
		c-0.133,0.24-0.31,0.424-0.532,0.551s-0.475,0.189-0.757,0.189s-0.537-0.062-0.762-0.189c-0.226-0.127-0.405-0.311-0.537-0.551
		c-0.131-0.24-0.197-0.523-0.197-0.846c0-0.33,0.066-0.613,0.197-0.85c0.132-0.238,0.311-0.42,0.537-0.547
		c0.226-0.127,0.48-0.189,0.762-0.189s0.535,0.062,0.757,0.189s0.399,0.309,0.532,0.547c0.131,0.236,0.197,0.52,0.197,0.85
		C14.455,16.967,14.389,17.25,14.258,17.49z"/>
	<path fill="#FFFFFF" d="M19.367,18.061c-0.176,0.139-0.395,0.209-0.658,0.209c-0.221,0-0.391-0.066-0.514-0.199
		c-0.121-0.133-0.184-0.32-0.184-0.561v-2.414h1.346v-0.95h-1.346v-1.159h-1.176v1.159h-0.828v0.95h0.828v2.441
		c0,0.564,0.15,0.99,0.451,1.277c0.303,0.289,0.729,0.434,1.281,0.434c0.213,0,0.42-0.029,0.621-0.086
		c0.199-0.057,0.369-0.143,0.508-0.256L19.367,18.061z"/>
</g>
</svg>
