<?xml version="1.0" encoding="utf-8"?>
<!-- Generator: Adobe Illustrator 15.0.0, SVG Export Plug-In . SVG Version: 6.00 Build 0)  -->
<!DOCTYPE svg PUBLIC "-//W3C//DTD SVG 1.1//EN" "http://www.w3.org/Graphics/SVG/1.1/DTD/svg11.dtd">
<svg version="1.1" id="Layer_1" xmlns="http://www.w3.org/2000/svg" xmlns:xlink="http://www.w3.org/1999/xlink" x="0px" y="0px"
	 width="26.36px" height="28.35px" viewBox="0 0 26.36 28.35" enable-background="new 0 0 26.36 28.35" xml:space="preserve">
<path fill="#1A1A18" d="M17.03,0.153H9.163c-2.924,0-5.302,2.379-5.302,5.303v5.569h1V5.456c0-2.372,1.93-4.303,4.302-4.303h7.138
	v3.828c0,2.924,2.379,5.303,5.302,5.303h3.758v12.764c0,2.372-1.93,4.302-4.302,4.302H9.163c-2.372,0-4.302-1.93-4.302-4.302h-1
	c0,2.924,2.378,5.302,5.302,5.302h11.896c2.924,0,5.302-2.378,5.302-5.302V9.566L17.03,0.153z M17.301,4.981V1.847l7.371,7.438
	h-3.069C19.23,9.284,17.301,7.354,17.301,4.981z"/>
<path fill="#EA5901" d="M23.158,21.843c0,0.468-0.382,0.851-0.85,0.851H1.343c-0.468,0-0.851-0.383-0.851-0.851v-9.675
	c0-0.468,0.383-0.851,0.851-0.851h20.966c0.468,0,0.85,0.383,0.85,0.851V21.843z"/>
<g>
	<path fill="#FFFFFF" d="M6.005,14.513c-0.341-0.204-0.734-0.307-1.18-0.307c-0.383,0-0.725,0.089-1.023,0.266
		c-0.185,0.11-0.337,0.267-0.474,0.446v-0.657H2.321v6.552h1.057v-2.35c0.13,0.158,0.275,0.296,0.444,0.396
		c0.302,0.18,0.636,0.271,1.002,0.271c0.446,0,0.839-0.103,1.18-0.307s0.612-0.49,0.812-0.859c0.2-0.369,0.3-0.803,0.3-1.301
		s-0.101-0.93-0.3-1.296C6.617,15.002,6.346,14.717,6.005,14.513z M5.865,17.465c-0.118,0.228-0.278,0.401-0.478,0.521
		s-0.427,0.18-0.681,0.18c-0.254,0-0.482-0.06-0.686-0.18s-0.364-0.294-0.482-0.521c-0.119-0.229-0.178-0.495-0.178-0.802
		c0-0.312,0.059-0.58,0.178-0.806c0.118-0.225,0.279-0.396,0.482-0.517s0.432-0.181,0.686-0.181c0.253,0,0.48,0.061,0.681,0.181
		s0.36,0.292,0.478,0.517c0.119,0.226,0.178,0.494,0.178,0.806C6.043,16.97,5.984,17.236,5.865,17.465z"/>
	<path fill="#FFFFFF" d="M11.724,14.513c-0.341-0.204-0.734-0.307-1.18-0.307c-0.383,0-0.725,0.089-1.023,0.266
		c-0.185,0.11-0.337,0.267-0.474,0.446v-0.657H8.04v6.552h1.057v-2.35c0.13,0.158,0.275,0.296,0.444,0.396
		c0.302,0.18,0.636,0.271,1.002,0.271c0.446,0,0.839-0.103,1.18-0.307s0.612-0.49,0.812-0.859c0.2-0.369,0.3-0.803,0.3-1.301
		s-0.101-0.93-0.3-1.296C12.335,15.002,12.065,14.717,11.724,14.513z M11.584,17.465c-0.118,0.228-0.278,0.401-0.478,0.521
		s-0.427,0.18-0.681,0.18c-0.254,0-0.482-0.06-0.686-0.18s-0.364-0.294-0.482-0.521C9.139,17.236,9.08,16.97,9.08,16.663
		c0-0.312,0.059-0.58,0.178-0.806c0.118-0.225,0.279-0.396,0.482-0.517s0.432-0.181,0.686-0.181c0.253,0,0.48,0.061,0.681,0.181
		s0.36,0.292,0.478,0.517c0.119,0.226,0.178,0.494,0.178,0.806C11.762,16.97,11.703,17.236,11.584,17.465z"/>
	<path fill="#FFFFFF" d="M15.586,18.202c-0.197,0-0.352-0.062-0.461-0.188s-0.166-0.303-0.166-0.531v-2.286h1.211v-0.899h-1.211
		v-1.099h-1.057v1.099h-0.744v0.899h0.744v2.313c0,0.534,0.135,0.938,0.407,1.21c0.27,0.273,0.654,0.41,1.15,0.41
		c0.191,0,0.377-0.027,0.559-0.081c0.18-0.055,0.332-0.136,0.457-0.243l-0.297-0.801C16.02,18.137,15.822,18.202,15.586,18.202z"/>
	<polygon fill="#FFFFFF" points="21.33,19.066 19.562,16.608 21.254,14.261 20.111,14.261 19,15.833 17.895,14.261 16.719,14.261 
		18.406,16.624 16.643,19.066 17.811,19.066 18.982,17.405 20.137,19.066 	"/>
</g>
</svg>
