<svg xmlns="http://www.w3.org/2000/svg" width="41.24" height="41.25" viewBox="0 0 41.24 41.25">
  <defs>
    <style>
      .cls-1 {
        fill: #959595;
        fill-rule: evenodd;
      }
    </style>
  </defs>
  <path id="Shape_35_copy" data-name="Shape 35 copy" class="cls-1" d="M1259.72,754.119h-34.44a3.407,3.407,0,0,1-3.4-3.4V716.28a3.407,3.407,0,0,1,3.4-3.4h34.44a3.407,3.407,0,0,1,3.4,3.4v34.44A3.407,3.407,0,0,1,1259.72,754.119Zm-34.44-40.238a2.4,2.4,0,0,0-2.4,2.4v34.44a2.4,2.4,0,0,0,2.4,2.4h34.44a2.4,2.4,0,0,0,2.4-2.4V716.28a2.4,2.4,0,0,0-2.4-2.4h-34.44Zm16.1,23.394-4.24-4.238,0.7-.707,3.54,3.53,5.78-5.782,0.7,0.707Zm3.86,10.9h-5.48v-3.142a11.735,11.735,0,0,1-3.48-1.442l-2.22,2.223-3.87-3.875,2.22-2.222a11.559,11.559,0,0,1-1.44-3.475h-3.14v-5.481h3.14a11.564,11.564,0,0,1,1.44-3.476l-2.22-2.223,3.87-3.872,2.22,2.221a11.84,11.84,0,0,1,3.48-1.44v-3.142h5.48v3.142a11.84,11.84,0,0,1,3.48,1.44l2.22-2.221,3.87,3.872-2.22,2.223a11.554,11.554,0,0,1,1.44,3.476h3.14v5.481h-3.14a11.548,11.548,0,0,1-1.44,3.475l2.22,2.222-3.87,3.875-2.22-2.222a11.759,11.759,0,0,1-3.48,1.441v3.142Zm-4.48-1h3.48v-2.954l0.4-.08a10.819,10.819,0,0,0,3.87-1.6l0.34-.227,2.09,2.09,2.46-2.461-2.09-2.089,0.23-.341a10.857,10.857,0,0,0,1.6-3.865l0.08-.4h2.95v-3.481h-2.95l-0.08-.4a10.839,10.839,0,0,0-1.6-3.866l-0.23-.341,2.09-2.091-2.46-2.457-2.09,2.087-0.34-.227a10.8,10.8,0,0,0-3.87-1.6l-0.4-.08v-2.954h-3.48v2.954l-0.4.08a10.872,10.872,0,0,0-3.87,1.6l-0.34.227-2.09-2.087-2.46,2.457,2.09,2.091-0.23.341a10.854,10.854,0,0,0-1.6,3.866l-0.08.4h-2.95v3.481h2.95l0.08,0.4a10.865,10.865,0,0,0,1.6,3.865l0.23,0.341-2.09,2.089,2.46,2.461,2.09-2.09,0.34,0.227a10.819,10.819,0,0,0,3.87,1.6l0.4,0.08v2.954Zm1.74-4.959a8.715,8.715,0,1,1,8.71-8.715A8.717,8.717,0,0,1,1242.5,742.214Zm0-16.429a7.715,7.715,0,1,0,7.71,7.714A7.721,7.721,0,0,0,1242.5,725.785Z" transform="translate(-1221.88 -712.875)"/>
</svg>
