<svg xmlns="http://www.w3.org/2000/svg" width="41.24" height="41.24" viewBox="0 0 41.24 41.24">
  <defs>
    <style>
      .cls-1 {
        fill: #959595;
        fill-rule: evenodd;
      }
    </style>
  </defs>
  <path class="cls-1" d="M1259.72,1201.62h-34.44a3.41,3.41,0,0,1-3.4-3.4v-34.44a3.41,3.41,0,0,1,3.4-3.4h34.44a3.41,3.41,0,0,1,3.4,3.4v34.44A3.41,3.41,0,0,1,1259.72,1201.62Zm-34.44-40.24a2.407,2.407,0,0,0-2.4,2.4v34.44a2.407,2.407,0,0,0,2.4,2.4h34.44a2.407,2.407,0,0,0,2.4-2.4v-34.44a2.407,2.407,0,0,0-2.4-2.4h-34.44Zm16.58,15.7a4.851,4.851,0,0,1-4.59-5.07v-0.24a4.613,4.613,0,1,1,9.18,0v0.24A4.851,4.851,0,0,1,1241.86,1177.08Zm0-9.38a3.853,3.853,0,0,0-3.59,4.07v0.24a3.618,3.618,0,1,0,7.18,0v-0.24A3.853,3.853,0,0,0,1241.86,1167.7Zm-10.55,21.12-0.93-.34,0.39-1.08a65.375,65.375,0,0,1,2.41-6.19c0.08-.14.16-0.28,0.24-0.41a2.743,2.743,0,0,1,1.92-1.6,9.757,9.757,0,0,1,2.26-.18h4.86v1h-4.89a9.052,9.052,0,0,0-2.03.16,1.777,1.777,0,0,0-1.26,1.13c-0.08.14-.17,0.29-0.26,0.44-0.3.46-1.56,3.92-2.31,5.99Zm18.39-7.07c-0.1-.15-0.18-0.3-0.27-0.44a1.76,1.76,0,0,0-1.26-1.13,8.9,8.9,0,0,0-2-.16h-4.92v-1h4.9a9.006,9.006,0,0,1,2.23.18,2.763,2.763,0,0,1,1.92,1.6c0.07,0.13.15,0.27,0.24,0.41Zm-0.35,14.95a7.805,7.805,0,1,1,7.81-7.8A7.81,7.81,0,0,1,1249.35,1196.7Zm0-14.61a6.805,6.805,0,1,0,6.81,6.81A6.816,6.816,0,0,0,1249.35,1182.09Zm0.5,9.91h-1v-6.21h1V1192Zm2.61-2.6h-6.21v-1h6.21v1Z" transform="translate(-1221.88 -1160.38)"/>
</svg>
