<svg xmlns="http://www.w3.org/2000/svg" width="41.24" height="41.24" viewBox="0 0 41.24 41.24">
  <defs>
    <style>
      .cls-1 {
        fill: #959595;
        fill-rule: evenodd;
      }
    </style>
  </defs>
  <path class="cls-1" d="M1259.72,1148.62h-34.44a3.41,3.41,0,0,1-3.4-3.4v-34.44a3.41,3.41,0,0,1,3.4-3.4h34.44a3.41,3.41,0,0,1,3.4,3.4v34.44A3.41,3.41,0,0,1,1259.72,1148.62Zm-34.44-40.24a2.407,2.407,0,0,0-2.4,2.4v34.44a2.407,2.407,0,0,0,2.4,2.4h34.44a2.407,2.407,0,0,0,2.4-2.4v-34.44a2.407,2.407,0,0,0-2.4-2.4h-34.44Zm19.13,29.02h-3.82v-2.02a7.448,7.448,0,0,1-1.96-.81l-1.43,1.42-2.69-2.69,1.42-1.43a7.311,7.311,0,0,1-.81-1.96h-2.02v-3.82h2.02a7.311,7.311,0,0,1,.81-1.96l-1.42-1.43,2.69-2.69,1.43,1.42a7.448,7.448,0,0,1,1.96-.81v-2.01h3.82v2.01a7.448,7.448,0,0,1,1.96.81l1.43-1.42,2.69,2.69-1.42,1.43a7.311,7.311,0,0,1,.81,1.96h2.02v3.82h-2.02a7.311,7.311,0,0,1-.81,1.96l1.42,1.43-2.69,2.69-1.43-1.42a7.448,7.448,0,0,1-1.96.81v2.02Zm-2.82-1h1.82v-1.82l0.4-.08a6.688,6.688,0,0,0,2.36-.98l0.34-.23,1.29,1.29,1.28-1.28-1.29-1.29,0.23-.34a6.417,6.417,0,0,0,.97-2.36l0.08-.4h1.83v-1.82h-1.83l-0.08-.4a6.417,6.417,0,0,0-.97-2.36l-0.23-.34,1.29-1.29-1.28-1.28-1.29,1.29-0.34-.23a6.488,6.488,0,0,0-2.36-.97l-0.4-.08v-1.82h-1.82v1.82l-0.4.08a6.488,6.488,0,0,0-2.36.97l-0.34.23-1.29-1.29-1.28,1.28,1.29,1.29-0.23.34a6.417,6.417,0,0,0-.97,2.36l-0.08.4h-1.83v1.82h1.83l0.08,0.4a6.417,6.417,0,0,0,.97,2.36l0.23,0.34-1.29,1.29,1.28,1.28,1.29-1.29,0.34,0.23a6.688,6.688,0,0,0,2.36.98l0.4,0.08v1.82Zm0.91-2.74a5.66,5.66,0,1,1,5.66-5.66A5.668,5.668,0,0,1,1242.5,1133.66Zm0-10.32a4.66,4.66,0,1,0,4.66,4.66A4.665,4.665,0,0,0,1242.5,1123.34Zm12.31,3.37a12.3,12.3,0,0,0-10.61-10.98l0.13-.99a13.294,13.294,0,0,1,11.48,11.87Zm-24.58-.16-1-.12a13.347,13.347,0,0,1,11.55-11.71l0.13,1A12.319,12.319,0,0,0,1230.23,1126.55Zm10.34,14.66a13.4,13.4,0,0,1-11.4-12.46l1-.06a12.394,12.394,0,0,0,10.54,11.53Zm3.54,0.04-0.11-.99a12.425,12.425,0,0,0,10.82-11.06l0.99,0.1A13.415,13.415,0,0,1,1244.11,1141.25Zm11.5-13.67-2.36-1.48,0.53-.85,1.52,0.96,0.95-1.52,0.85,0.53Zm-10.21,14.95-2.34-1.53,1.53-2.34,0.83,0.55-0.97,1.5,1.5,0.98Zm-16.65-11.89-0.84-.55,1.52-2.33,2.34,1.52-0.54.83-1.51-.97Zm11.6-13.3-0.83-.55,0.99-1.49-1.5-.99,0.56-.83,2.32,1.54Z" transform="translate(-1221.88 -1107.38)"/>
</svg>
