<svg xmlns="http://www.w3.org/2000/svg" width="37.562" height="37.5" viewBox="0 0 37.562 37.5">
  <defs>
    <style>
      .cls-1 {
        fill: #a52019;
        fill-rule: evenodd;
      }
    </style>
  </defs>
  <path class="cls-1" d="M376.5,848.766A18.766,18.766,0,1,1,395.266,830,18.787,18.787,0,0,1,376.5,848.766Zm0-36A17.234,17.234,0,1,0,393.734,830,17.254,17.254,0,0,0,376.5,812.766ZM373.013,841.9l-1.471-2.882-3.218.348,3.267-6.015,0.877,0.48-2.359,4.336,2.01-.218,0.92,1.8,2.678-4.9,0.875,0.484Zm6.974,0-3.522-6.508,0.879-.477,2.617,4.835,0.918-1.8,2.012,0.218-2.359-4.267,0.87-.494,1.1,1.938,2.175,4.022-3.218-.348Zm-1-5.247a1.179,1.179,0,0,1-.516-0.119l-1.6-.779a1.133,1.133,0,0,0-.762,0l-1.594.779a1.223,1.223,0,0,1-1.575-.513l-0.832-1.568a1.066,1.066,0,0,0-.616-0.448l-1.749-.307a1.2,1.2,0,0,1-.973-1.34l0.248-1.756a1.058,1.058,0,0,0-.235-0.723l-1.234-1.278a1.2,1.2,0,0,1,0-1.657l1.233-1.273a1.065,1.065,0,0,0,.236-0.725l-0.248-1.758a1.2,1.2,0,0,1,.973-1.339l1.749-.307a1.066,1.066,0,0,0,.616-0.448l0.832-1.569a1.221,1.221,0,0,1,1.575-.511l1.6,0.779a1.106,1.106,0,0,0,.761,0l1.6-.779a1.222,1.222,0,0,1,1.575.511l0.832,1.569a1.066,1.066,0,0,0,.616.448l1.749,0.307a1.2,1.2,0,0,1,.973,1.339l-0.248,1.758a1.069,1.069,0,0,0,.235.725l1.234,1.273a1.2,1.2,0,0,1,0,1.657l-1.234,1.277a1.062,1.062,0,0,0-.235.724l0.248,1.756a1.2,1.2,0,0,1-.973,1.34l-1.749.307a1.066,1.066,0,0,0-.616.448l-0.832,1.568A1.191,1.191,0,0,1,378.992,836.656Zm-2.492-1.968a1.913,1.913,0,0,1,.819.171l1.673,0.8a0.2,0.2,0,0,0,.174-0.1L380,833.987a2.046,2.046,0,0,1,1.327-.964l1.749-.306a0.2,0.2,0,0,0,.156-0.215l-0.248-1.756a2.047,2.047,0,0,1,.507-1.561l1.234-1.277a0.2,0.2,0,0,0,0-.265l-1.234-1.274a2.046,2.046,0,0,1-.507-1.56l0.248-1.758a0.2,0.2,0,0,0-.156-0.215l-1.749-.307a2.046,2.046,0,0,1-1.327-.964L379.166,820a0.2,0.2,0,0,0-.173-0.1l-1.673.8a2.1,2.1,0,0,1-1.641,0l-1.594-.779a0.223,0.223,0,0,0-.253.082L373,821.565a2.048,2.048,0,0,1-1.327.964l-1.749.307a0.2,0.2,0,0,0-.156.215l0.248,1.758a2.046,2.046,0,0,1-.507,1.56l-1.233,1.274a0.2,0.2,0,0,0,0,.264l1.235,1.279a2.046,2.046,0,0,1,.506,1.56l-0.248,1.756a0.2,0.2,0,0,0,.156.215l1.749,0.306a2.048,2.048,0,0,1,1.327.964l0.831,1.569a0.2,0.2,0,0,0,.175.1l1.672-.8A1.922,1.922,0,0,1,376.5,834.688Zm0-1.5a5.413,5.413,0,1,1,5.414-5.414A5.42,5.42,0,0,1,376.5,833.191Zm0-9.826a4.413,4.413,0,1,0,4.414,4.412A4.418,4.418,0,0,0,376.5,823.365Z" transform="translate(-357.719 -811.25)"/>
</svg>
