<?xml version="1.0" encoding="utf-8"?>
<!-- Generator: Adobe Illustrator 15.0.0, SVG Export Plug-In . SVG Version: 6.00 Build 0)  -->
<!DOCTYPE svg PUBLIC "-//W3C//DTD SVG 1.1//EN" "http://www.w3.org/Graphics/SVG/1.1/DTD/svg11.dtd">
<svg version="1.1" id="Layer_1" xmlns="http://www.w3.org/2000/svg" xmlns:xlink="http://www.w3.org/1999/xlink" x="0px" y="0px"
	 width="26.36px" height="28.35px" viewBox="0 0 26.36 28.35" enable-background="new 0 0 26.36 28.35" xml:space="preserve">
<path fill="#1A1A18" d="M17.03,0.153H9.163c-2.924,0-5.302,2.379-5.302,5.303v5.569h1V5.456c0-2.372,1.93-4.303,4.302-4.303h7.138
	v3.828c0,2.924,2.379,5.303,5.302,5.303h3.758v12.764c0,2.372-1.93,4.302-4.302,4.302H9.163c-2.372,0-4.302-1.93-4.302-4.302h-1
	c0,2.924,2.378,5.302,5.302,5.302h11.896c2.924,0,5.302-2.378,5.302-5.302V9.566L17.03,0.153z M17.301,4.981V1.847l7.371,7.438
	h-3.069C19.23,9.284,17.301,7.354,17.301,4.981z"/>
<path fill="#68717B" d="M23.158,21.843c0,0.468-0.382,0.851-0.85,0.851H1.343c-0.468,0-0.851-0.383-0.851-0.851v-9.675
	c0-0.468,0.383-0.851,0.851-0.851h20.966c0.468,0,0.85,0.383,0.85,0.851V21.843z"/>
<g>
	<path fill="#FFFFFF" d="M5.361,19.157c-0.22,0-0.391-0.066-0.513-0.199c-0.123-0.133-0.184-0.32-0.184-0.561v-2.413H6.01v-0.95
		H4.665v-1.159H3.488v1.159H2.66v0.95h0.828v2.441c0,0.563,0.15,0.989,0.452,1.277c0.301,0.289,0.728,0.433,1.28,0.433
		c0.213,0,0.42-0.028,0.621-0.085c0.201-0.058,0.37-0.143,0.508-0.257L6.02,18.948C5.844,19.088,5.624,19.157,5.361,19.157z"/>
	<path fill="#FFFFFF" d="M10.546,15.263c-0.383-0.216-0.819-0.323-1.308-0.323c-0.502,0-0.949,0.11-1.341,0.332
		s-0.7,0.527-0.922,0.917s-0.334,0.838-0.334,1.345c0,0.5,0.115,0.946,0.344,1.339s0.552,0.702,0.969,0.927
		c0.417,0.225,0.905,0.337,1.463,0.337c0.439,0,0.83-0.071,1.172-0.214c0.342-0.143,0.625-0.347,0.852-0.612l-0.63-0.731
		c-0.176,0.189-0.376,0.329-0.603,0.418c-0.226,0.089-0.48,0.133-0.762,0.133c-0.326,0-0.615-0.063-0.866-0.19
		c-0.251-0.126-0.445-0.307-0.583-0.541c-0.086-0.146-0.136-0.311-0.168-0.484h3.932c0.006-0.058,0.011-0.117,0.014-0.181
		c0.003-0.063,0.004-0.12,0.004-0.171c0-0.532-0.109-0.994-0.329-1.387C11.229,15.781,10.928,15.478,10.546,15.263z M7.972,16.606
		c0.123-0.225,0.292-0.4,0.508-0.527c0.216-0.126,0.469-0.189,0.757-0.189c0.282,0,0.532,0.063,0.748,0.189
		c0.217,0.127,0.387,0.301,0.513,0.522c0.087,0.155,0.131,0.333,0.154,0.522H7.818C7.845,16.936,7.89,16.759,7.972,16.606z"/>
	<polygon fill="#FFFFFF" points="17.113,14.996 15.844,14.996 14.606,16.655 13.378,14.996 12.07,14.996 13.946,17.491 
		11.985,20.069 13.284,20.069 14.586,18.316 15.871,20.069 17.198,20.069 15.232,17.475 	"/>
	<path fill="#FFFFFF" d="M20.661,18.948c-0.176,0.14-0.396,0.209-0.659,0.209c-0.219,0-0.391-0.066-0.512-0.199
		c-0.123-0.133-0.184-0.32-0.184-0.561v-2.413h1.346v-0.95h-1.346v-1.159H18.13v1.159h-0.828v0.95h0.828v2.441
		c0,0.563,0.15,0.989,0.452,1.277c0.301,0.289,0.727,0.433,1.279,0.433c0.213,0,0.42-0.028,0.621-0.085
		c0.201-0.058,0.37-0.143,0.508-0.257L20.661,18.948z"/>
</g>
</svg>
