<?xml version="1.0" encoding="utf-8"?>
<!-- Generator: Adobe Illustrator 15.0.0, SVG Export Plug-In . SVG Version: 6.00 Build 0)  -->
<!DOCTYPE svg PUBLIC "-//W3C//DTD SVG 1.1//EN" "http://www.w3.org/Graphics/SVG/1.1/DTD/svg11.dtd">
<svg version="1.1" id="Layer_1" xmlns="http://www.w3.org/2000/svg" xmlns:xlink="http://www.w3.org/1999/xlink" x="0px" y="0px"
	 width="26.36px" height="28.35px" viewBox="0 0 26.36 28.35" enable-background="new 0 0 26.36 28.35" xml:space="preserve">
<g>
	<path fill="#1A1A18" d="M15.146,0.211H7.278c-2.924,0-5.302,2.379-5.302,5.303v17.632h1V5.514c0-2.372,1.93-4.303,4.302-4.303
		h7.138v3.828c0,2.924,2.379,5.303,5.302,5.303h3.758v12.764c0,2.372-1.93,4.302-4.302,4.302H7.278c-2.372,0-4.302-1.93-4.302-4.302
		h-1c0,2.924,2.378,5.302,5.302,5.302h11.896c2.924,0,5.302-2.378,5.302-5.302V9.624L15.146,0.211z M15.416,5.039V1.904l7.371,7.438
		h-3.069C17.346,9.342,15.416,7.411,15.416,5.039z"/>
</g>
</svg>
