<svg xmlns="http://www.w3.org/2000/svg" width="32.18" height="32.188" viewBox="0 0 32.18 32.188">
  <defs>
    <style>
      .cls-1 {
        fill: #555;
        fill-rule: evenodd;
      }
    </style>
  </defs>
  <path class="cls-1" d="M1248,56.4a4.818,4.818,0,1,1,4.82-4.818A4.823,4.823,0,0,1,1248,56.4Zm0-8.635a3.818,3.818,0,1,0,3.82,3.818A3.827,3.827,0,0,0,1248,47.762Zm7.51,14.249a5.409,5.409,0,0,0-4.89-3.124h-5.24a5.364,5.364,0,0,0-4.81,2.967l-0.89-.45a6.354,6.354,0,0,1,5.7-3.517h5.24a6.4,6.4,0,0,1,5.79,3.7ZM1248,70.09A16.09,16.09,0,1,1,1264.09,54,16.11,16.11,0,0,1,1248,70.09Zm0-31.181A15.09,15.09,0,1,0,1263.09,54,15.108,15.108,0,0,0,1248,38.91Z" transform="translate(-1231.91 -37.906)"/>
</svg>
