<svg xmlns="http://www.w3.org/2000/svg" width="37.562" height="37.531" viewBox="0 0 37.562 37.531">
  <defs>
    <style>
      .cls-1 {
        fill: #a52019;
        fill-rule: evenodd;
      }
    </style>
  </defs>
  <path class="cls-1" d="M377,768.766A18.766,18.766,0,1,1,395.766,750,18.787,18.787,0,0,1,377,768.766Zm0-36A17.234,17.234,0,1,0,394.234,750,17.254,17.254,0,0,0,377,732.766Zm-0.514,24.414a1.416,1.416,0,1,1,.969.383A1.314,1.314,0,0,1,376.486,757.18Zm-0.045-7.727v-7.994h2.027v7.994l-0.338,3.154h-1.351Z" transform="translate(-358.219 -731.219)"/>
</svg>
