<svg xmlns="http://www.w3.org/2000/svg" width="40.5" height="40.5" viewBox="0 0 40.5 40.5">
  <defs>
    <style>
      .cls-1 {
        fill: #a52019;
        fill-rule: evenodd;
      }
    </style>
  </defs>
  <path class="cls-1" d="M1197.5,639.266a17.234,17.234,0,1,0,17.23,17.234A17.252,17.252,0,0,0,1197.5,639.266Zm-0.56,8.693h2.03v7.994l-0.34,3.154h-1.35l-0.34-3.154v-7.994Zm1.98,15.721a1.4,1.4,0,1,1,.39-0.969A1.29,1.29,0,0,1,1198.92,663.68Zm-1.42-27.43a20.25,20.25,0,1,0,20.25,20.25A20.252,20.252,0,0,0,1197.5,636.25Zm0,39.016a18.766,18.766,0,1,1,18.77-18.766A18.789,18.789,0,0,1,1197.5,675.266Z" transform="translate(-1177.25 -636.25)"/>
</svg>
