<svg xmlns="http://www.w3.org/2000/svg" width="37.562" height="37.531" viewBox="0 0 37.562 37.531">
  <defs>
    <style>
      .cls-1 {
        fill: #fff;
        fill-rule: evenodd;
      }
    </style>
  </defs>
  <path class="cls-1" d="M865.5,475.266A18.766,18.766,0,1,1,884.266,456.5,18.787,18.787,0,0,1,865.5,475.266Zm0-36A17.234,17.234,0,1,0,882.734,456.5,17.254,17.254,0,0,0,865.5,439.266Zm-0.514,24.414a1.419,1.419,0,1,1,.969.382A1.314,1.314,0,0,1,864.986,463.68Zm-0.045-7.727v-7.994h2.027v7.994l-0.338,3.154h-1.351Z" transform="translate(-846.719 -437.719)"/>
</svg>
