<?xml version="1.0" encoding="utf-8"?>
<!-- Generator: Adobe Illustrator 15.0.0, SVG Export Plug-In . SVG Version: 6.00 Build 0)  -->
<!DOCTYPE svg PUBLIC "-//W3C//DTD SVG 1.1//EN" "http://www.w3.org/Graphics/SVG/1.1/DTD/svg11.dtd">
<svg version="1.1" id="Layer_1" xmlns="http://www.w3.org/2000/svg" xmlns:xlink="http://www.w3.org/1999/xlink" x="0px" y="0px"
	 width="26.36px" height="28.35px" viewBox="0 0 26.36 28.35" enable-background="new 0 0 26.36 28.35" xml:space="preserve">
<path fill="#1A1A18" d="M17.03,0.153H9.163c-2.924,0-5.302,2.379-5.302,5.303v5.569h1V5.456c0-2.372,1.93-4.303,4.302-4.303h7.138
	v3.828c0,2.924,2.379,5.303,5.302,5.303h3.758v12.764c0,2.372-1.93,4.302-4.302,4.302H9.163c-2.372,0-4.302-1.93-4.302-4.302h-1
	c0,2.924,2.378,5.302,5.302,5.302h11.896c2.924,0,5.302-2.378,5.302-5.302V9.566L17.03,0.153z M17.301,4.981V1.847l7.371,7.438
	h-3.069C19.23,9.284,17.301,7.354,17.301,4.981z"/>
<path fill="#6CB041" d="M23.158,21.843c0,0.468-0.382,0.851-0.85,0.851H1.343c-0.468,0-0.851-0.383-0.851-0.851v-9.675
	c0-0.468,0.383-0.851,0.851-0.851h20.966c0.468,0,0.85,0.383,0.85,0.851V21.843z"/>
<g>
	<polygon fill="#FFFFFF" points="10.733,15.174 9.464,15.174 8.227,16.832 6.998,15.174 5.69,15.174 7.566,17.668 5.605,20.246 
		6.904,20.246 8.207,18.494 9.492,20.246 10.818,20.246 8.854,17.652 	"/>
	<rect x="11.59" y="13.198" fill="#FFFFFF" width="1.177" height="7.048"/>
	<path fill="#FFFFFF" d="M17.875,18.053c-0.112-0.178-0.262-0.316-0.447-0.414c-0.185-0.098-0.387-0.176-0.606-0.232
		s-0.44-0.1-0.663-0.129c-0.223-0.027-0.426-0.064-0.607-0.109c-0.182-0.043-0.329-0.104-0.441-0.18
		c-0.113-0.076-0.17-0.189-0.17-0.342c0-0.164,0.086-0.301,0.259-0.408s0.438-0.162,0.796-0.162c0.238,0,0.478,0.027,0.719,0.08
		c0.242,0.055,0.482,0.154,0.721,0.301l0.451-0.904c-0.226-0.139-0.512-0.246-0.856-0.322s-0.687-0.113-1.025-0.113
		c-0.452,0-0.843,0.064-1.171,0.193c-0.33,0.131-0.586,0.314-0.768,0.553c-0.182,0.236-0.272,0.518-0.272,0.84
		c0,0.291,0.057,0.525,0.169,0.703c0.113,0.178,0.26,0.318,0.442,0.422c0.182,0.105,0.384,0.184,0.606,0.238
		s0.445,0.096,0.668,0.129c0.223,0.031,0.426,0.066,0.607,0.104c0.182,0.039,0.329,0.094,0.442,0.166
		c0.112,0.074,0.169,0.18,0.169,0.318c0,0.172-0.083,0.309-0.249,0.408c-0.167,0.102-0.435,0.152-0.805,0.152
		c-0.313,0-0.628-0.047-0.94-0.143c-0.314-0.094-0.584-0.215-0.81-0.361l-0.451,0.902c0.226,0.16,0.531,0.293,0.917,0.404
		s0.789,0.166,1.209,0.166c0.471,0,0.875-0.064,1.214-0.193c0.339-0.131,0.601-0.312,0.786-0.547
		c0.185-0.234,0.277-0.51,0.277-0.826C18.045,18.461,17.988,18.229,17.875,18.053z"/>
</g>
</svg>
